<?xml version="1.0" encoding="utf-8"?>
<!-- Generator: Adobe Illustrator 17.0.0, SVG Export Plug-In . SVG Version: 6.00 Build 0)  -->
<!DOCTYPE svg PUBLIC "-//W3C//DTD SVG 1.1//EN" "http://www.w3.org/Graphics/SVG/1.1/DTD/svg11.dtd">
<svg version="1.1" id="Layer_1" xmlns="http://www.w3.org/2000/svg" xmlns:xlink="http://www.w3.org/1999/xlink" x="0px" y="0px"
	 width="65px" height="65px" viewBox="0 0 65 65" enable-background="new 0 0 65 65" xml:space="preserve">
<g>
	<g transform="translate(0,-952.36218)">
		<path fill="#218E98" d="M8.071,961.719c-1.425,0-2.571,1.061-2.571,2.391v31.219c0,1.33,1.147,2.391,2.571,2.391h48.857
			c1.425,0,2.571-1.061,2.571-2.391V964.11c0-1.33-1.147-2.391-2.571-2.391H8.071z"/>
	</g>
	<g>
		<g>
			<path fill="#6772E5" d="M28.636,35.416c-0.705,0-1.315-0.478-1.485-1.161l-0.833-2.993c-0.891-0.267-1.514-1.086-1.514-2.036
				v-2.142c0-1.173,0.954-2.127,2.127-2.127h0.546c0.542,0,1.111-0.038,1.74-0.117l0.449-0.056v6.618l-0.07-0.004l0.525,2.106
				c0.117,0.469,0.016,0.951-0.278,1.324C29.553,35.201,29.112,35.416,28.636,35.416z"/>
			<path fill="#FFFFFF" d="M29.266,25.237v5.74c-0.099-0.006-0.102-0.009-0.19-0.012l0.657,2.635
				c0.088,0.35,0.012,0.706-0.204,0.981c-0.216,0.277-0.54,0.435-0.893,0.435c-0.522,0-0.972-0.353-1.097-0.858l-0.899-3.231
				c-0.814-0.14-1.436-0.849-1.436-1.701v-2.142c0-0.954,0.776-1.728,1.728-1.728h0.546C28.026,25.356,28.613,25.318,29.266,25.237
				 M30.066,24.331l-0.899,0.112c-0.611,0.076-1.164,0.113-1.69,0.113h-0.546c-1.394,0-2.528,1.134-2.528,2.528v2.142
				c0,1.051,0.641,1.967,1.584,2.344l0.78,2.802c0.209,0.841,0.979,1.444,1.868,1.444c0.601,0,1.156-0.271,1.524-0.743
				c0.368-0.468,0.497-1.077,0.349-1.666l-0.443-1.778v-0.651v-5.74V24.331L30.066,24.331z"/>
		</g>
		<g>
			<path fill="#6772E5" d="M37.907,25.376l0.549,0.219c1.041,0.416,1.74,1.443,1.74,2.558c0,1.112-0.699,2.141-1.739,2.56
				l-0.55,0.221V25.376z"/>
			<path fill="#FFFFFF" d="M38.307,25.966c0.87,0.347,1.488,1.199,1.488,2.186c0,0.986-0.619,1.839-1.488,2.189V25.966
				 M37.507,24.785v1.181v4.375v1.185l1.099-0.442c1.209-0.487,1.99-1.637,1.99-2.931c0-1.276-0.8-2.453-1.992-2.929L37.507,24.785
				L37.507,24.785z"/>
		</g>
		<g>
			<path fill="#6772E5" d="M37.432,34.92c-0.16,0-0.316-0.057-0.439-0.159l-0.879-0.723c-1.798-1.477-3.978-2.382-6.303-2.616
				l-0.36-0.036v-6.577l0.339-0.052c2.653-0.409,5.142-1.517,7.196-3.203c0.117-0.103,0.278-0.165,0.446-0.165
				c0.099,0,0.198,0.021,0.288,0.063c0.252,0.12,0.404,0.36,0.404,0.63v12.146c0,0.269-0.157,0.515-0.398,0.626
				C37.636,34.896,37.536,34.92,37.432,34.92z"/>
			<path fill="#FFFFFF" d="M37.432,21.79c0.042,0,0.083,0.009,0.122,0.027c0.105,0.05,0.169,0.152,0.169,0.266v12.146
				c0,0.111-0.064,0.216-0.166,0.263c-0.041,0.02-0.082,0.029-0.125,0.029c-0.064,0-0.131-0.023-0.184-0.067l-0.881-0.724
				c-1.865-1.532-4.112-2.463-6.517-2.705v-5.872c2.726-0.42,5.276-1.555,7.389-3.289l0.006-0.003
				C37.298,21.813,37.365,21.79,37.432,21.79 M37.432,20.99c-0.219,0-0.431,0.066-0.609,0.187l-0.016,0.008l-0.075,0.06
				c-2,1.641-4.422,2.719-7.004,3.117l-0.678,0.105v0.686v5.872v0.723l0.72,0.073c2.246,0.226,4.352,1.1,6.089,2.527l0.881,0.724
				c0.191,0.159,0.438,0.249,0.692,0.249c0.17,0,0.332-0.038,0.483-0.114c0.36-0.164,0.609-0.553,0.609-0.978V22.082
				c0-0.427-0.241-0.806-0.628-0.989C37.745,21.024,37.588,20.99,37.432,20.99L37.432,20.99z"/>
		</g>
	</g>
	<path fill="#6772E5" d="M26.674,46.643c-0.078,1.959-0.373,3.737-1.085,5.143h13.821c-0.712-1.406-1.007-3.184-1.085-5.143H26.674z
		"/>
	<path fill="#6772E5" d="M20.286,53.071c-0.71,0-1.286,0.576-1.286,1.286s0.576,1.286,1.286,1.286h24.429
		c0.71,0,1.286-0.576,1.286-1.286s-0.576-1.286-1.286-1.286H20.286z"/>
</g>
</svg>
