<?xml version="1.0" encoding="utf-8"?>
<!-- Generator: Adobe Illustrator 17.0.0, SVG Export Plug-In . SVG Version: 6.00 Build 0)  -->
<!DOCTYPE svg PUBLIC "-//W3C//DTD SVG 1.1//EN" "http://www.w3.org/Graphics/SVG/1.1/DTD/svg11.dtd">
<svg version="1.1" id="Layer_1" xmlns="http://www.w3.org/2000/svg" xmlns:xlink="http://www.w3.org/1999/xlink" x="0px" y="0px"
	 width="400px" height="192.667px" viewBox="0 0 400 192.667" enable-background="new 0 0 400 192.667" xml:space="preserve">
<circle opacity="0.5" fill="#FFFFFF" cx="363.966" cy="138.146" r="1.729"/>
<circle opacity="0.5" fill="#FFFFFF" cx="130.737" cy="121.571" r="1"/>
<circle opacity="0.3" fill="#FFFFFF" cx="176.182" cy="76.842" r="1.729"/>
<circle opacity="0.2" fill="#FFFFFF" cx="279.945" cy="109.083" r="1.729"/>
<circle opacity="0.3" fill="#FFFFFF" cx="42.844" cy="57.071" r="1.729"/>
<circle opacity="0.5" fill="#FFFFFF" cx="370.94" cy="53.071" r="1.296"/>
<g opacity="0.2">
	<path opacity="0.5" fill="#FFFFFF" d="M322.817,114.895l9.116-46.256l-51.165,13.905l-0.591,0.16L322.817,114.895z M312.485,89.565
		l9.299,23.797l-39.699-29.97L312.485,89.565z M313.033,89.316l17.997-19.205l-8.549,43.382L313.033,89.316z M312.541,88.963
		l-30.391-6.171l48.535-13.19L312.541,88.963z"/>
	<circle fill="#2DEAC5" cx="322.45" cy="114.115" r="0.902"/>
	<circle fill="#E59826" cx="312.718" cy="89.323" r="0.902"/>
	<circle fill="#373A82" cx="331.357" cy="69.323" r="0.902"/>
	<circle fill="#9C1764" cx="280.847" cy="82.834" r="0.902"/>
</g>
<g opacity="0.4">
	<path opacity="0.5" fill="#FFFFFF" d="M56.647,80.692l29.852,53.268l38.778-56.676l0.448-0.655L56.647,80.692z M88.106,96.994
		L58.953,81.336l64.313-3.783L88.106,96.994z M87.774,97.7l-1.621,34.05L58.156,81.792L87.774,97.7z M88.557,97.635l35.15-19.435
		l-36.784,53.763L88.557,97.635z"/>
	<circle fill="#2DEAC5" cx="57.664" cy="81.153" r="1.168"/>
	<circle fill="#E59826" cx="88.079" cy="97.429" r="1.168"/>
	<circle fill="#373A82" cx="86.493" cy="132.803" r="1.168"/>
	<circle fill="#9C1764" cx="124.956" cy="77.064" r="1.168"/>
</g>
<g opacity="0.8">
	<path opacity="0.5" fill="#FFFFFF" d="M168.226,24.344l19.88,24.751l15.018-32.39l0.174-0.374L168.226,24.344z M185.756,30.003
		l-16.292-5.526l32.652-7.46L185.756,30.003z M185.647,30.393l2.092,17.598l-18.645-23.213L185.647,30.393z M186.043,30.293
		l16.355-12.983l-14.246,30.725L186.043,30.293z"/>
	<circle fill="#2DEAC5" cx="168.788" cy="24.494" r="0.607"/>
	<circle fill="#E59826" cx="185.78" cy="30.228" r="0.607"/>
	<circle fill="#373A82" cx="188.004" cy="48.502" r="0.607"/>
	<circle fill="#9C1764" cx="202.941" cy="16.62" r="0.607"/>
</g>
<g opacity="0.4">
	<path opacity="0.5" fill="#FFFFFF" d="M265.694,175.734l25.661-18.69l-31.645-16.53l-0.366-0.191L265.694,175.734z M272.174,158.49
		l-6.289,16.014l-5.911-32.968L272.174,158.49z M272.559,158.618l17.677-1.259l-24.067,17.529L272.559,158.618z M272.477,158.218
		l-12.197-16.949l30.018,15.68L272.477,158.218z"/>
	<circle fill="#2DEAC5" cx="265.87" cy="175.18" r="0.607"/>
	<circle fill="#E59826" cx="272.4" cy="158.477" r="0.607"/>
	<circle fill="#373A82" cx="290.758" cy="157.119" r="0.607"/>
	<circle fill="#9C1764" cx="259.617" cy="140.694" r="0.607"/>
</g>
</svg>
