<?xml version="1.0" encoding="utf-8"?>
<!-- Generator: Adobe Illustrator 17.0.0, SVG Export Plug-In . SVG Version: 6.00 Build 0)  -->
<!DOCTYPE svg PUBLIC "-//W3C//DTD SVG 1.1//EN" "http://www.w3.org/Graphics/SVG/1.1/DTD/svg11.dtd">
<svg version="1.1" id="Layer_1" xmlns="http://www.w3.org/2000/svg" xmlns:xlink="http://www.w3.org/1999/xlink" x="0px" y="0px"
	 width="65px" height="65px" viewBox="0 0 65 65" enable-background="new 0 0 65 65" xml:space="preserve">
<g>
	<path fill="#218E98" d="M62.996,26.8v-5.925c0-1.288-1.03-2.319-2.319-2.319H28.668c-2.383-4.508-7.149-7.6-12.559-7.6
		c-7.857,0-14.233,6.376-14.233,14.233c0,6.44,4.315,11.915,10.176,13.654v12.881c0,1.288,1.03,2.319,2.319,2.319h46.436
		c1.288,0,2.319-1.03,2.319-2.319V32.661H28.281c1.03-1.739,1.739-3.735,1.932-5.796h32.782V26.8z M4.516,25.319
		c0-6.376,5.152-11.528,11.528-11.528s11.528,5.152,11.528,11.528s-5.152,11.528-11.528,11.528S4.516,31.631,4.516,25.319z
		 M25.254,47.989c0,0.322-0.258,0.644-0.644,0.644h-5.925c-0.322,0-0.644-0.258-0.644-0.644V46.25c0-0.322,0.258-0.644,0.644-0.644
		h5.925c0.322,0,0.644,0.258,0.644,0.644V47.989z M49.728,46.315c0-0.322,0.258-0.644,0.644-0.644h5.99
		c0.322,0,0.644,0.258,0.644,0.644v1.739c0,0.322-0.258,0.644-0.644,0.644h-5.99c-0.322,0-0.644-0.258-0.644-0.644V46.315z
		 M39.166,46.315c0-0.322,0.258-0.644,0.644-0.644h5.99c0.322,0,0.644,0.258,0.644,0.644v1.739c0,0.322-0.258,0.644-0.644,0.644
		h-5.99c-0.322,0-0.644-0.258-0.644-0.644L39.166,46.315z M28.604,46.315c0-0.322,0.258-0.644,0.644-0.644h5.925
		c0.322,0,0.644,0.258,0.644,0.644v1.739c0,0.322-0.258,0.644-0.644,0.644h-5.925c-0.322,0-0.644-0.258-0.644-0.644V46.315z"/>
	<polygon fill="#6772E5" points="21.39,19.394 14.112,26.671 10.699,23.322 8.123,25.899 14.112,31.888 24.031,21.97 	"/>
</g>
</svg>
