<?xml version="1.0" encoding="utf-8"?>
<!-- Generator: Adobe Illustrator 17.0.0, SVG Export Plug-In . SVG Version: 6.00 Build 0)  -->
<!DOCTYPE svg PUBLIC "-//W3C//DTD SVG 1.1//EN" "http://www.w3.org/Graphics/SVG/1.1/DTD/svg11.dtd">
<svg version="1.1" id="Layer_1" xmlns="http://www.w3.org/2000/svg" xmlns:xlink="http://www.w3.org/1999/xlink" x="0px" y="0px"
	 width="400px" height="192.667px" viewBox="0 0 400 192.667" enable-background="new 0 0 400 192.667" xml:space="preserve">
<circle opacity="0.5" fill="#FFFFFF" cx="371.994" cy="45.82" r="1.729"/>
<circle opacity="0.5" fill="#FFFFFF" cx="179.104" cy="17.333" r="1"/>
<circle opacity="0.3" fill="#FFFFFF" cx="163.197" cy="81.219" r="1.729"/>
<circle opacity="0.2" fill="#FFFFFF" cx="267.444" cy="82.007" r="1.729"/>
<circle opacity="0.3" fill="#FFFFFF" cx="44.573" cy="32.333" r="1.729"/>
<circle opacity="0.5" fill="#FFFFFF" cx="363.761" cy="121.136" r="1.296"/>
<g opacity="0.2">
	<path opacity="0.5" fill="#FFFFFF" d="M73.437,126.792l9.116-46.256L31.388,94.44l-0.591,0.16L73.437,126.792z M63.105,101.461
		l9.299,23.797l-39.699-29.97L63.105,101.461z M63.653,101.212L81.65,82.007l-8.549,43.382L63.653,101.212z M63.161,100.859
		L32.77,94.688l48.535-13.19L63.161,100.859z"/>
	<circle fill="#2DEAC5" cx="73.07" cy="126.011" r="0.902"/>
	<circle fill="#E59826" cx="63.338" cy="101.219" r="0.902"/>
	<circle fill="#373A82" cx="81.978" cy="81.219" r="0.902"/>
	<circle fill="#9C1764" cx="31.467" cy="94.73" r="0.902"/>
</g>
<g opacity="0.4">
	<path opacity="0.5" fill="#FFFFFF" d="M284.879,127.32l3.752,60.947l59.546-34.207l0.688-0.395L284.879,127.32z M306.134,155.668
		l-19.458-26.766l59.573,24.527L306.134,155.668z M305.529,156.16l-16.249,29.966l-3.52-57.16L305.529,156.16z M306.262,156.441
		l40.103-2.238l-56.485,32.449L306.262,156.441z"/>
	<circle fill="#2DEAC5" cx="285.595" cy="128.177" r="1.168"/>
	<circle fill="#E59826" cx="305.922" cy="156.048" r="1.168"/>
	<circle fill="#373A82" cx="289.128" cy="187.222" r="1.168"/>
	<circle fill="#9C1764" cx="347.983" cy="153.722" r="1.168"/>
</g>
<g opacity="0.8">
	<path opacity="0.5" fill="#FFFFFF" d="M281.195,56.023l31.659-2.34l-18.163-30.736l-0.21-0.355L281.195,56.023z M295.796,44.792
		l-13.79,10.287l12.37-31.126L295.796,44.792z M296.056,45.103l15.682,8.256l-29.692,2.195L296.056,45.103z M296.197,44.72
		l-1.42-20.833l17.23,29.156L296.197,44.72z"/>
	<circle fill="#2DEAC5" cx="281.636" cy="55.645" r="0.607"/>
	<circle fill="#E59826" cx="295.995" cy="44.9" r="0.607"/>
	<circle fill="#373A82" cx="312.308" cy="53.431" r="0.607"/>
	<circle fill="#9C1764" cx="294.517" cy="23.049" r="0.607"/>
</g>
<g opacity="0.4">
	<path opacity="0.5" fill="#FFFFFF" d="M114.189,38.368l25.661-18.69l-31.645-16.53l-0.366-0.191L114.189,38.368z M120.669,21.125
		l-6.289,16.014l-5.911-32.968L120.669,21.125z M121.054,21.252l17.677-1.259l-24.067,17.529L121.054,21.252z M120.972,20.853
		L108.775,3.903l30.018,15.68L120.972,20.853z"/>
	<circle fill="#2DEAC5" cx="114.365" cy="37.815" r="0.607"/>
	<circle fill="#E59826" cx="120.895" cy="21.112" r="0.607"/>
	<circle fill="#373A82" cx="139.254" cy="19.753" r="0.607"/>
	<circle fill="#9C1764" cx="108.112" cy="3.328" r="0.607"/>
</g>
</svg>
