<?xml version="1.0" encoding="utf-8"?>
<!-- Generator: Adobe Illustrator 17.0.0, SVG Export Plug-In . SVG Version: 6.00 Build 0)  -->
<!DOCTYPE svg PUBLIC "-//W3C//DTD SVG 1.1//EN" "http://www.w3.org/Graphics/SVG/1.1/DTD/svg11.dtd">
<svg version="1.1" id="Layer_1" xmlns="http://www.w3.org/2000/svg" xmlns:xlink="http://www.w3.org/1999/xlink" x="0px" y="0px"
	 width="65px" height="65px" viewBox="0 0 65 65" enable-background="new 0 0 65 65" xml:space="preserve">
<g>
	<g>
		<path fill="#218E98" d="M62.373,33.736c-1.941-8.866-8.737-14.945-15.153-13.545c-1.183,0.261-2.296,0.762-3.308,1.491
			c-1.75,1.261-3.577,2.045-5.428,2.33c-1.115,0.172-2.07,0.298-2.918,0.384c-2.179,0.211-3.954,0.211-6.128,0
			c-0.852-0.087-1.807-0.213-2.923-0.384c-1.847-0.285-3.671-1.068-5.42-2.33c-1.009-0.728-2.125-1.229-3.316-1.491
			c-0.618-0.134-1.24-0.2-1.86-0.2c-5.817,0-11.537,5.734-13.291,13.745C0.69,42.593,2.923,58.441,9.12,59.801
			c3.325,0.73,7.892-2.914,11.928-9.497c2.084-3.399,5.616-5.603,9.447-5.897c1.39-0.106,2.629-0.106,4.019,0
			c3.833,0.294,7.365,2.499,9.449,5.9c4.033,6.581,8.597,10.21,11.917,9.493C62.077,58.438,64.31,42.593,62.373,33.736z
			 M20.995,35.285c0,0.463-0.375,0.838-0.838,0.838h-2.141c-0.463,0-0.838,0.375-0.838,0.838v2.141c0,0.463-0.375,0.838-0.838,0.838
			H13.69c-0.463,0-0.838-0.375-0.838-0.838v-2.141c0-0.463-0.375-0.838-0.838-0.838H9.875c-0.463,0-0.838-0.375-0.838-0.838v-2.652
			c0-0.463,0.375-0.838,0.838-0.838h2.141c0.463,0,0.838-0.375,0.838-0.838v-2.141c0-0.463,0.375-0.838,0.838-0.838h2.652
			c0.463,0,0.838,0.375,0.838,0.838v2.141c0,0.463,0.375,0.838,0.838,0.838h2.141c0.463,0,0.838,0.375,0.838,0.838V35.285z
			 M29.048,39.397h-2.9c-0.463,0-0.838-0.375-0.838-0.838c0-0.463,0.375-0.838,0.838-0.838h2.9c0.463,0,0.838,0.375,0.838,0.838
			C29.885,39.022,29.51,39.397,29.048,39.397z M38.852,39.397h-2.9c-0.463,0-0.838-0.375-0.838-0.838
			c0-0.463,0.375-0.838,0.838-0.838h2.9c0.463,0,0.838,0.375,0.838,0.838C39.69,39.022,39.315,39.397,38.852,39.397z M51.049,39.549
			c-3.087,0-5.589-2.502-5.589-5.589c0-3.087,2.502-5.589,5.589-5.589c3.087,0,5.589,2.502,5.589,5.589
			C56.638,37.046,54.136,39.549,51.049,39.549z"/>
		<path fill="#6772E5" d="M33.48,16.834c0-1.886,1.535-3.421,3.421-3.421c2.967,0,5.38-2.414,5.38-5.381V5.944
			c0-0.463-0.375-0.838-0.838-0.838c-0.463,0-0.838,0.375-0.838,0.838v2.088c0,2.043-1.662,3.705-3.705,3.705
			c-2.81,0-5.096,2.286-5.096,5.096v2.428h1.675V16.834z"/>
		<path fill="#6772E5" d="M31.24,22.845c0.384,0.018,0.763,0.029,1.14,0.03c0.081,0,0.162,0,0.243,0
			c0.375-0.002,0.752-0.012,1.135-0.03c0.14-0.007,0.284-0.016,0.426-0.025c0.149-0.009,0.306-0.023,0.459-0.035v-1.849h-4.287
			v1.849c0.156,0.012,0.315,0.026,0.468,0.035C30.963,22.83,31.103,22.839,31.24,22.845z"/>
	</g>
	<circle fill="#6772E5" cx="51.049" cy="33.96" r="3.923"/>
	
		<line fill="none" stroke="#6772E5" stroke-width="2.2" stroke-linecap="round" stroke-linejoin="round" stroke-miterlimit="10" x1="15.031" y1="30.58" x2="15.031" y2="37.434"/>
	
		<line fill="none" stroke="#6772E5" stroke-width="2.2" stroke-linecap="round" stroke-linejoin="round" stroke-miterlimit="10" x1="18.458" y1="34.007" x2="11.604" y2="34.007"/>
</g>
</svg>
