<?xml version="1.0" encoding="utf-8"?>
<!-- Generator: Adobe Illustrator 17.0.0, SVG Export Plug-In . SVG Version: 6.00 Build 0)  -->
<!DOCTYPE svg PUBLIC "-//W3C//DTD SVG 1.1//EN" "http://www.w3.org/Graphics/SVG/1.1/DTD/svg11.dtd">
<svg version="1.1" id="Layer_1" xmlns="http://www.w3.org/2000/svg" xmlns:xlink="http://www.w3.org/1999/xlink" x="0px" y="0px"
	 width="400px" height="192.667px" viewBox="0 0 400 192.667" enable-background="new 0 0 400 192.667" xml:space="preserve">
<circle opacity="0.5" fill="#FFFFFF" cx="364.5" cy="50.842" r="1.729"/>
<circle opacity="0.5" fill="#FFFFFF" cx="124" cy="121.071" r="1"/>
<circle opacity="0.3" fill="#FFFFFF" cx="169" cy="68.071" r="1.729"/>
<circle opacity="0.2" fill="#FFFFFF" cx="286" cy="89.799" r="1.729"/>
<circle opacity="0.3" fill="#FFFFFF" cx="44.572" cy="78.299" r="1.729"/>
<circle opacity="0.5" fill="#FFFFFF" cx="355.427" cy="138.146" r="1.296"/>
<g opacity="0.2">
	<path opacity="0.5" fill="#FFFFFF" d="M117.399,68.43l9.116-46.256L75.35,36.079l-0.591,0.16L117.399,68.43z M107.067,43.1
		l9.299,23.797l-39.699-29.97L107.067,43.1z M107.615,42.85l17.997-19.205l-8.549,43.382L107.615,42.85z M107.122,42.497
		l-30.391-6.171l48.535-13.19L107.122,42.497z"/>
	<circle fill="#2DEAC5" cx="117.032" cy="67.65" r="0.902"/>
	<circle fill="#E59826" cx="107.3" cy="42.857" r="0.902"/>
	<circle fill="#373A82" cx="125.939" cy="22.857" r="0.902"/>
	<circle fill="#9C1764" cx="75.429" cy="36.369" r="0.902"/>
</g>
<g opacity="0.4">
	<path opacity="0.5" fill="#FFFFFF" d="M213.651,26.486l29.852,53.268l38.778-56.676l0.448-0.655L213.651,26.486z M245.11,42.789
		l-29.153-15.658l64.313-3.783L245.11,42.789z M244.778,43.495l-1.621,34.05L215.16,27.586L244.778,43.495z M245.561,43.429
		l35.15-19.435l-36.784,53.763L245.561,43.429z"/>
	<circle fill="#2DEAC5" cx="214.668" cy="26.948" r="1.168"/>
	<circle fill="#E59826" cx="245.083" cy="43.223" r="1.168"/>
	<circle fill="#373A82" cx="243.497" cy="78.597" r="1.168"/>
	<circle fill="#9C1764" cx="281.96" cy="22.859" r="1.168"/>
</g>
<g opacity="0.8">
	<path opacity="0.5" fill="#FFFFFF" d="M283.206,117.414l19.88,24.751l15.018-32.39l0.174-0.374L283.206,117.414z M300.736,123.072
		l-16.292-5.526l32.652-7.46L300.736,123.072z M300.626,123.463l2.092,17.598l-18.645-23.213L300.626,123.463z M301.022,123.362
		l16.355-12.983l-14.246,30.725L301.022,123.362z"/>
	<circle fill="#2DEAC5" cx="283.767" cy="117.563" r="0.607"/>
	<circle fill="#E59826" cx="300.759" cy="123.297" r="0.607"/>
	<circle fill="#373A82" cx="302.983" cy="141.572" r="0.607"/>
	<circle fill="#9C1764" cx="317.92" cy="109.69" r="0.607"/>
</g>
<g opacity="0.4">
	<path opacity="0.5" fill="#FFFFFF" d="M56.643,147.126l25.661-18.69l-31.645-16.53l-0.366-0.191L56.643,147.126z M63.122,129.882
		l-6.289,16.014l-5.911-32.968L63.122,129.882z M63.507,130.01l17.677-1.259l-24.067,17.529L63.507,130.01z M63.425,129.61
		L51.228,112.66l30.018,15.68L63.425,129.61z"/>
	<circle fill="#2DEAC5" cx="56.818" cy="146.572" r="0.607"/>
	<circle fill="#E59826" cx="63.348" cy="129.869" r="0.607"/>
	<circle fill="#373A82" cx="81.707" cy="128.51" r="0.607"/>
	<circle fill="#9C1764" cx="50.565" cy="112.086" r="0.607"/>
</g>
</svg>
