<?xml version="1.0" encoding="UTF-8"?>
<svg width="70px" height="70px" viewBox="0 0 70 70" version="1.1" xmlns="http://www.w3.org/2000/svg" xmlns:xlink="http://www.w3.org/1999/xlink">
    <!-- Generator: Sketch 50.2 (55047) - http://www.bohemiancoding.com/sketch -->
    <title>Group 46</title>
    <desc>Created with Sketch.</desc>
    <defs>
        <ellipse id="path-1" cx="29.8410519" cy="30" rx="29.8410519" ry="30"></ellipse>
        <filter x="-14.2%" y="-10.8%" width="128.5%" height="128.3%" filterUnits="objectBoundingBox" id="filter-2">
            <feOffset dx="0" dy="2" in="SourceAlpha" result="shadowOffsetOuter1"></feOffset>
            <feGaussianBlur stdDeviation="2.5" in="shadowOffsetOuter1" result="shadowBlurOuter1"></feGaussianBlur>
            <feColorMatrix values="0 0 0 0 0   0 0 0 0 0   0 0 0 0 0  0 0 0 0.21557971 0" type="matrix" in="shadowBlurOuter1"></feColorMatrix>
        </filter>
    </defs>
    <g id="Website" stroke="none" stroke-width="1" fill="none" fill-rule="evenodd">
        <g id="Home-Page" transform="translate(-862.000000, -4237.000000)">
            <g id="Group-16" transform="translate(-87.000000, 4083.000000)">
                <g id="Group-28" transform="translate(0.000000, 3.000000)">
                    <g id="Group-48" transform="translate(87.000000, 2.000000)">
                        <g id="Group-23" transform="translate(421.000000, 89.000000)">
                            <g id="Group-24" transform="translate(0.000000, 63.000000)">
                                <g id="Group-46" transform="translate(446.422136, 0.000000)">
                                    <g id="Oval-3">
                                        <use fill="black" fill-opacity="1" filter="url(#filter-2)" xlink:href="#path-1"></use>
                                        <use fill="#23A5A8" fill-rule="evenodd" xlink:href="#path-1"></use>
                                    </g>
                                    <g id="noun_RSS_1656755" transform="translate(16.000000, 15.000000)" fill="#FFFFFF" fill-rule="nonzero">
                                        <path d="M1.01274279,11.0557755 L3.3336117,11.0557755 C12.0685183,11.0557755 19.1577179,18.1449751 19.1577179,26.8798817 L19.1577179,29.2007506 C19.1577179,29.6649243 19.5374964,30.0447029 20.0016702,30.0447029 L21.4785868,30.0447029 C21.9427605,30.0447029 22.3225391,29.6649243 22.3225391,29.2007506 L22.3225391,26.8798817 C22.3225391,16.3726752 13.8408182,7.89095427 3.3336117,7.89095427 L1.01274279,7.89095427 C0.548569013,7.89095427 0.168790466,8.27073282 0.168790466,8.7349066 L0.168790466,10.2118232 C0.168790466,10.675997 0.548569013,11.0557755 1.01274279,11.0557755 C1.01274279,11.0557755 1.01274279,11.0557755 1.01274279,11.0557755 Z" id="Shape"></path>
                                        <path d="M1.01274279,3.16482123 L3.3336117,3.16482123 C16.4570704,3.16482123 27.0908697,13.7986206 27.0908697,26.8798817 C27.0908697,26.8798817 27.0908697,26.8798817 27.0908697,26.8798817 L27.0908697,29.2007506 C27.0908697,29.6649243 27.4706483,30.0447029 27.9348221,30.0447029 L29.4117386,30.0447029 C29.8759124,30.0447029 30.255691,29.6649243 30.255691,29.2007506 L30.255691,26.8798817 C30.2134934,12.0263207 18.1871727,0 3.3336117,0 L1.01274279,0 C0.548569013,0 0.168790466,0.379778548 0.168790466,0.843952328 L0.168790466,2.3208689 C0.168790466,2.78504268 0.548569013,3.16482123 1.01274279,3.16482123 C1.01274279,3.16482123 1.01274279,3.16482123 1.01274279,3.16482123 Z" id="Shape"></path>
                                        <path d="M1.01274279,18.9889274 L3.3336117,18.9889274 C7.7221638,18.9889274 11.2667636,22.5335272 11.2667636,26.8798817 C11.2667636,26.8798817 11.2667636,26.8798817 11.2667636,26.8798817 L11.2667636,29.2007506 C11.2667636,29.6649243 11.6465421,30.0447029 12.1107159,30.0447029 L13.5876325,30.0447029 C14.0518063,30.0447029 14.4315848,29.6649243 14.4315848,29.2007506 L14.4315848,26.8798817 C14.4315848,20.7612273 9.49446369,15.8241062 3.37580931,15.8241062 L1.05494041,15.8241062 C0.59076663,15.8241062 0.210988082,16.2038847 0.210988082,16.6680585 L0.210988082,18.1449751 C0.168790466,18.6091488 0.548569013,18.9889274 1.01274279,18.9889274 Z" id="Shape"></path>
                                        <circle id="Oval" cx="3.3336117" cy="26.8798817" r="3.16482123"></circle>
                                    </g>
                                </g>
                            </g>
                        </g>
                    </g>
                </g>
            </g>
        </g>
    </g>
</svg>