<?xml version="1.0" encoding="UTF-8"?>
<svg width="69px" height="70px" viewBox="0 0 69 70" version="1.1" xmlns="http://www.w3.org/2000/svg" xmlns:xlink="http://www.w3.org/1999/xlink">
    <!-- Generator: sketchtool 50.2 (55047) - http://www.bohemiancoding.com/sketch -->
    <title>C315A0C7-7E06-49C8-82C6-38158918D0E2</title>
    <desc>Created with sketchtool.</desc>
    <defs>
        <ellipse id="path-1" cx="29.8410519" cy="30" rx="29.8410519" ry="30"></ellipse>
        <filter x="-14.2%" y="-10.8%" width="128.5%" height="128.3%" filterUnits="objectBoundingBox" id="filter-2">
            <feOffset dx="0" dy="2" in="SourceAlpha" result="shadowOffsetOuter1"></feOffset>
            <feGaussianBlur stdDeviation="2.5" in="shadowOffsetOuter1" result="shadowBlurOuter1"></feGaussianBlur>
            <feColorMatrix values="0 0 0 0 0   0 0 0 0 0   0 0 0 0 0  0 0 0 0.21557971 0" type="matrix" in="shadowBlurOuter1"></feColorMatrix>
        </filter>
    </defs>
    <g id="Website" stroke="none" stroke-width="1" fill="none" fill-rule="evenodd">
        <g id="Home-Page" transform="translate(-552.000000, -4526.000000)">
            <g id="Group-28" transform="translate(-87.000000, 4375.000000)">
                <g id="Group-48" transform="translate(87.000000, 2.000000)">
                    <g id="Group-23" transform="translate(467.000000, 89.000000)">
                        <g id="Group-24" transform="translate(0.000000, 63.000000)">
                            <g id="Slack" transform="translate(90.046683, 0.000000)">
                                <g id="Group-45">
                                    <g id="Oval-3">
                                        <use fill="black" fill-opacity="1" filter="url(#filter-2)" xlink:href="#path-1"></use>
                                        <use fill="#23A5A8" fill-rule="evenodd" xlink:href="#path-1"></use>
                                    </g>
                                    <path d="M44.6581289,34.968 L41.4326427,36.0493333 L42.5480349,39.4026667 C42.9857037,40.7613333 42.2708447,42.2386667 40.9167241,42.6773333 C39.3915148,43.1106667 38.0678983,42.2493333 37.6501236,41.0426667 L36.5360577,37.6853333 L29.8874713,39.9213333 L31.0015373,43.2773333 C31.5201084,44.8813333 30.4259365,46.6666667 28.5731388,46.6666667 C27.4060221,46.6666667 26.4497821,45.9146667 26.1062785,44.9146667 L24.98956,41.56 L21.7654001,42.6386667 C20.2600848,43.076 18.9205532,42.216 18.4987996,41 C18.0624571,39.6426667 18.7786424,38.164 20.1314367,37.7253333 L23.3569229,36.6466667 L21.2070409,30.216 L17.9815547,31.2933333 C16.1844603,31.8053333 14.5889587,30.5066667 14.5889587,28.8413333 C14.5889587,27.752 15.2640296,26.732 16.3489176,26.38 L19.57573,25.3013333 L18.4590116,21.948 C18.0213428,20.588 18.7388543,19.1093333 20.0929749,18.6706667 C21.4457693,18.232 22.9179279,18.9493333 23.3569229,20.3093333 L24.4736414,23.6626667 L31.1195752,21.4266667 L30.0068355,18.0706667 C29.4723491,16.42 30.6487497,14.6666667 32.4511492,14.6666667 C33.5373635,14.6666667 34.5532856,15.3453333 34.9047468,16.4346667 L36.0201391,19.7906667 L39.2442989,18.7106667 C40.5970933,18.2706667 42.0705781,18.992 42.5082469,20.3493333 C42.9485682,21.7066667 42.2297304,23.184 40.876936,23.624 L37.6501236,24.7026667 L39.8013319,31.1333333 L43.0281443,30.0546667 C44.6753704,29.52 46.4194141,30.7 46.4194141,32.5053333 C46.4194141,33.5973333 45.7430169,34.616 44.6581289,34.968 Z M32.7323183,26.3973333 L26.0877107,28.6306667 L28.2349402,35.068 L34.880874,32.836 L32.7323183,26.3973333 Z" id="Shape" fill="#FFFFFF"></path>
                                </g>
                            </g>
                        </g>
                    </g>
                </g>
            </g>
        </g>
    </g>
</svg>