<?xml version="1.0" encoding="UTF-8"?>
<svg width="69px" height="70px" viewBox="0 0 69 70" version="1.1" xmlns="http://www.w3.org/2000/svg" xmlns:xlink="http://www.w3.org/1999/xlink">
    <!-- Generator: sketchtool 50.2 (55047) - http://www.bohemiancoding.com/sketch -->
    <title>ED330C75-8E82-4603-ABD0-95EB2EBEC6DE</title>
    <desc>Created with sketchtool.</desc>
    <defs>
        <ellipse id="path-1" cx="29.8410519" cy="30" rx="29.8410519" ry="30"></ellipse>
        <filter x="-14.2%" y="-10.8%" width="128.5%" height="128.3%" filterUnits="objectBoundingBox" id="filter-2">
            <feOffset dx="0" dy="2" in="SourceAlpha" result="shadowOffsetOuter1"></feOffset>
            <feGaussianBlur stdDeviation="2.5" in="shadowOffsetOuter1" result="shadowBlurOuter1"></feGaussianBlur>
            <feColorMatrix values="0 0 0 0 0   0 0 0 0 0   0 0 0 0 0  0 0 0 0.21557971 0" type="matrix" in="shadowBlurOuter1"></feColorMatrix>
        </filter>
    </defs>
    <g id="Website" stroke="none" stroke-width="1" fill="none" fill-rule="evenodd">
        <g id="Home-Page" transform="translate(-727.000000, -4526.000000)">
            <g id="Group-28" transform="translate(-87.000000, 4375.000000)">
                <g id="Group-48" transform="translate(87.000000, 2.000000)">
                    <g id="Group-23" transform="translate(467.000000, 89.000000)">
                        <g id="Group-24" transform="translate(0.000000, 63.000000)">
                            <g id="Github" transform="translate(264.904777, 0.000000)">
                                <g id="Group-15">
                                    <g id="Oval-3">
                                        <use fill="black" fill-opacity="1" filter="url(#filter-2)" xlink:href="#path-1"></use>
                                        <use fill="#23A5A8" fill-rule="evenodd" xlink:href="#path-1"></use>
                                    </g>
                                    <path d="M30.5041864,14.6666667 C21.7163282,14.6666667 14.5889587,21.8306667 14.5889587,30.6666667 C14.5889587,37.736 19.1486714,43.7333333 25.4736482,45.8493333 C26.2680833,45.9973333 26.5253795,45.5013333 26.5253795,45.08 L26.5253795,42.1013333 C22.0982936,43.0693333 21.1765367,40.2133333 21.1765367,40.2133333 C20.4523938,38.364 19.4086202,37.872 19.4086202,37.872 C17.9643132,36.8786667 19.5187005,36.9 19.5187005,36.9 C21.1168546,37.012 21.9577091,38.5493333 21.9577091,38.5493333 C23.3768169,40.9946667 25.6805461,40.288 26.5890404,39.8786667 C26.7309512,38.8453333 27.1434208,38.1386667 27.5996573,37.74 C24.0651505,37.3333333 20.3489449,35.9613333 20.3489449,29.832 C20.3489449,28.084 20.970965,26.6573333 21.9882133,25.5373333 C21.823756,25.1333333 21.2786594,23.5053333 22.1433868,21.3026667 C22.1433868,21.3026667 23.4802659,20.8733333 26.5214007,22.9426667 C27.7906401,22.588 29.151392,22.4106667 30.5041864,22.404 C31.8569807,22.4106667 33.219059,22.588 34.4909509,22.9426667 C37.5294331,20.8733333 38.8636597,21.3026667 38.8636597,21.3026667 C39.7297134,23.5066667 39.1846168,25.1346667 39.0201595,25.5373333 C40.0413866,26.6573333 40.6581017,28.0853333 40.6581017,29.832 C40.6581017,35.9773333 36.9352646,37.3306667 33.3914739,37.7266667 C33.9617696,38.2226667 34.4829933,39.196 34.4829933,40.6893333 L34.4829933,45.08 C34.4829933,45.5053333 34.737637,46.0053333 35.5453348,45.848 C41.8650064,43.7293333 46.4194141,37.7333333 46.4194141,30.6666667 C46.4194141,21.8306667 39.2933709,14.6666667 30.5041864,14.6666667 Z" id="Shape" fill="#FFFFFF" fill-rule="nonzero"></path>
                                </g>
                            </g>
                        </g>
                    </g>
                </g>
            </g>
        </g>
    </g>
</svg>