<?xml version="1.0" encoding="UTF-8"?>
<svg width="701px" height="586px" viewBox="0 0 701 586" version="1.1" xmlns="http://www.w3.org/2000/svg" xmlns:xlink="http://www.w3.org/1999/xlink">
    <!-- Generator: Sketch 50.2 (55047) - http://www.bohemiancoding.com/sketch -->
    <title>Graph</title>
    <desc>Created with Sketch.</desc>
    <defs>
        <rect id="path-1" x="0" y="0" width="619.140083" height="450" rx="6"></rect>
        <filter x="-10.7%" y="-12.7%" width="121.3%" height="129.3%" filterUnits="objectBoundingBox" id="filter-3">
            <feOffset dx="0" dy="9" in="SourceAlpha" result="shadowOffsetOuter1"></feOffset>
            <feGaussianBlur stdDeviation="20.5" in="shadowOffsetOuter1" result="shadowBlurOuter1"></feGaussianBlur>
            <feColorMatrix values="0 0 0 0 0   0 0 0 0 0   0 0 0 0 0  0 0 0 0.346127717 0" type="matrix" in="shadowBlurOuter1"></feColorMatrix>
        </filter>
    </defs>
    <g id="Website" stroke="none" stroke-width="1" fill="none" fill-rule="evenodd">
        <g id="Home-Page" transform="translate(-79.000000, -1099.000000)">
            <g id="Graph" transform="translate(120.000000, 1131.000000)">
                <g id="Group-50">
                    <g id="Graph-1">
                        <g id="Group-20">
                            <g id="Graph-background">
                                <mask id="mask-2" fill="white">
                                    <use xlink:href="#path-1"></use>
                                </mask>
                                <g id="Mask">
                                    <use fill="black" fill-opacity="1" filter="url(#filter-3)" xlink:href="#path-1"></use>
                                    <use fill="#02172D" fill-rule="evenodd" xlink:href="#path-1"></use>
                                </g>
                                <rect id="Rectangle-7" fill="#022242" opacity="0.528459821" mask="url(#mask-2)" x="0" y="180" width="619.140083" height="90"></rect>
                                <rect id="Rectangle-7" fill="#022242" opacity="0.528459821" mask="url(#mask-2)" x="0" y="0" width="619.140083" height="90"></rect>
                                <rect id="Rectangle-7" fill="#022242" opacity="0.528459821" mask="url(#mask-2)" x="-1.2038835" y="363" width="619.140083" height="90"></rect>
                            </g>
                        </g>
                    </g>
                    <path d="M197.612,537.786 L197.612,536.454 L206.108,536.454 L206.108,537.786 L202.688,537.786 L202.688,549 L201.05,549 L201.05,537.786 L197.612,537.786 Z M209.882,543.636 L209.882,549 L208.244,549 L208.244,539.136 L209.882,539.136 L209.882,540.738 C210.44,539.64 211.502,538.956 213.068,538.956 L213.068,540.648 L212.636,540.648 C211.07,540.648 209.882,541.35 209.882,543.636 Z M214.466,544.032 C214.466,540.954 216.5,538.974 219.146,538.974 C220.982,538.974 222.242,539.91 222.818,540.936 L222.818,539.136 L224.474,539.136 L224.474,549 L222.818,549 L222.818,547.164 C222.224,548.226 220.946,549.162 219.128,549.162 C216.5,549.162 214.466,547.092 214.466,544.032 Z M222.818,544.05 C222.818,541.764 221.27,540.396 219.47,540.396 C217.67,540.396 216.14,541.71 216.14,544.032 C216.14,546.354 217.67,547.722 219.47,547.722 C221.27,547.722 222.818,546.372 222.818,544.05 Z M234.584,549 L234.584,543.42 C234.584,541.404 233.486,540.378 231.83,540.378 C230.156,540.378 229.004,541.422 229.004,543.546 L229.004,549 L227.366,549 L227.366,539.136 L229.004,539.136 L229.004,540.54 C229.652,539.514 230.84,538.956 232.172,538.956 C234.458,538.956 236.204,540.36 236.204,543.186 L236.204,549 L234.584,549 Z M246.098,546.318 C246.098,547.938 244.676,549.162 242.498,549.162 C240.194,549.162 238.574,547.902 238.466,546.102 L240.158,546.102 C240.248,547.056 241.094,547.776 242.48,547.776 C243.776,547.776 244.496,547.128 244.496,546.318 C244.496,544.122 238.664,545.4 238.664,541.728 C238.664,540.216 240.086,538.974 242.282,538.974 C244.46,538.974 245.9,540.144 246.008,542.07 L244.37,542.07 C244.298,541.08 243.542,540.36 242.228,540.36 C241.022,540.36 240.302,540.936 240.302,541.728 C240.302,544.068 246.026,542.79 246.098,546.318 Z M247.91,544.032 C247.91,540.954 249.944,538.974 252.59,538.974 C254.426,538.974 255.686,539.91 256.262,540.936 L256.262,539.136 L257.918,539.136 L257.918,549 L256.262,549 L256.262,547.164 C255.668,548.226 254.39,549.162 252.572,549.162 C249.944,549.162 247.91,547.092 247.91,544.032 Z M256.262,544.05 C256.262,541.764 254.714,540.396 252.914,540.396 C251.114,540.396 249.584,541.71 249.584,544.032 C249.584,546.354 251.114,547.722 252.914,547.722 C254.714,547.722 256.262,546.372 256.262,544.05 Z M260.198,544.05 C260.198,540.954 262.196,538.974 265.004,538.974 C267.452,538.974 269.054,540.234 269.558,542.304 L267.794,542.304 C267.452,541.116 266.462,540.36 265.004,540.36 C263.204,540.36 261.872,541.638 261.872,544.05 C261.872,546.498 263.204,547.776 265.004,547.776 C266.462,547.776 267.434,547.074 267.794,545.832 L269.558,545.832 C269.054,547.794 267.452,549.162 265.004,549.162 C262.196,549.162 260.198,547.182 260.198,544.05 Z M272.216,546.3 L272.216,540.486 L270.938,540.486 L270.938,539.136 L272.216,539.136 L272.216,536.652 L273.854,536.652 L273.854,539.136 L276.428,539.136 L276.428,540.486 L273.854,540.486 L273.854,546.3 C273.854,547.272 274.214,547.614 275.222,547.614 L276.428,547.614 L276.428,549 L274.952,549 C273.206,549 272.216,548.28 272.216,546.3 Z M278.528,549 L278.528,539.136 L280.166,539.136 L280.166,549 L278.528,549 Z M279.374,537.534 C278.744,537.534 278.258,537.048 278.258,536.418 C278.258,535.788 278.744,535.302 279.374,535.302 C279.968,535.302 280.454,535.788 280.454,536.418 C280.454,537.048 279.968,537.534 279.374,537.534 Z M292.436,544.05 C292.436,547.182 290.186,549.162 287.378,549.162 C284.588,549.162 282.464,547.182 282.464,544.05 C282.464,540.936 284.66,538.974 287.45,538.974 C290.258,538.974 292.436,540.936 292.436,544.05 Z M284.138,544.05 C284.138,546.552 285.668,547.722 287.378,547.722 C289.088,547.722 290.762,546.552 290.762,544.05 C290.762,541.566 289.124,540.396 287.432,540.396 C285.704,540.396 284.138,541.566 284.138,544.05 Z M301.934,549 L301.934,543.42 C301.934,541.404 300.836,540.378 299.18,540.378 C297.506,540.378 296.354,541.422 296.354,543.546 L296.354,549 L294.716,549 L294.716,539.136 L296.354,539.136 L296.354,540.54 C297.002,539.514 298.19,538.956 299.522,538.956 C301.808,538.956 303.554,540.36 303.554,543.186 L303.554,549 L301.934,549 Z M313.448,546.318 C313.448,547.938 312.026,549.162 309.848,549.162 C307.544,549.162 305.924,547.902 305.816,546.102 L307.508,546.102 C307.598,547.056 308.444,547.776 309.83,547.776 C311.126,547.776 311.846,547.128 311.846,546.318 C311.846,544.122 306.014,545.4 306.014,541.728 C306.014,540.216 307.436,538.974 309.632,538.974 C311.81,538.974 313.25,540.144 313.358,542.07 L311.72,542.07 C311.648,541.08 310.892,540.36 309.578,540.36 C308.372,540.36 307.652,540.936 307.652,541.728 C307.652,544.068 313.376,542.79 313.448,546.318 Z M322.436,540.954 C323.03,539.91 324.326,538.974 326.126,538.974 C328.772,538.974 330.806,540.954 330.806,544.032 C330.806,547.092 328.772,549.162 326.126,549.162 C324.326,549.162 323.048,548.19 322.436,547.182 L322.436,553.68 L320.798,553.68 L320.798,539.136 L322.436,539.136 L322.436,540.954 Z M329.132,544.032 C329.132,541.71 327.602,540.396 325.784,540.396 C324.002,540.396 322.436,541.764 322.436,544.05 C322.436,546.372 324.002,547.722 325.784,547.722 C327.602,547.722 329.132,546.354 329.132,544.032 Z M337.28,540.36 C335.678,540.36 334.346,541.422 334.166,543.348 L340.394,543.348 C340.412,541.422 338.972,540.36 337.28,540.36 Z M341.888,545.958 C341.384,547.758 339.8,549.162 337.352,549.162 C334.544,549.162 332.474,547.182 332.474,544.05 C332.474,540.936 334.472,538.974 337.352,538.974 C340.214,538.974 342.086,540.99 342.086,543.69 C342.086,544.05 342.068,544.338 342.032,544.68 L334.148,544.68 C334.274,546.678 335.678,547.776 337.352,547.776 C338.828,547.776 339.764,547.02 340.124,545.958 L341.888,545.958 Z M346.004,543.636 L346.004,549 L344.366,549 L344.366,539.136 L346.004,539.136 L346.004,540.738 C346.562,539.64 347.624,538.956 349.19,538.956 L349.19,540.648 L348.758,540.648 C347.192,540.648 346.004,541.35 346.004,543.636 Z M363.218,546.318 C363.218,547.938 361.796,549.162 359.618,549.162 C357.314,549.162 355.694,547.902 355.586,546.102 L357.278,546.102 C357.368,547.056 358.214,547.776 359.6,547.776 C360.896,547.776 361.616,547.128 361.616,546.318 C361.616,544.122 355.784,545.4 355.784,541.728 C355.784,540.216 357.206,538.974 359.402,538.974 C361.58,538.974 363.02,540.144 363.128,542.07 L361.49,542.07 C361.418,541.08 360.662,540.36 359.348,540.36 C358.142,540.36 357.422,540.936 357.422,541.728 C357.422,544.068 363.146,542.79 363.218,546.318 Z M369.836,540.36 C368.234,540.36 366.902,541.422 366.722,543.348 L372.95,543.348 C372.968,541.422 371.528,540.36 369.836,540.36 Z M374.444,545.958 C373.94,547.758 372.356,549.162 369.908,549.162 C367.1,549.162 365.03,547.182 365.03,544.05 C365.03,540.936 367.028,538.974 369.908,538.974 C372.77,538.974 374.642,540.99 374.642,543.69 C374.642,544.05 374.624,544.338 374.588,544.68 L366.704,544.68 C366.83,546.678 368.234,547.776 369.908,547.776 C371.384,547.776 372.32,547.02 372.68,545.958 L374.444,545.958 Z M376.31,544.05 C376.31,540.954 378.308,538.974 381.116,538.974 C383.564,538.974 385.166,540.234 385.67,542.304 L383.906,542.304 C383.564,541.116 382.574,540.36 381.116,540.36 C379.316,540.36 377.984,541.638 377.984,544.05 C377.984,546.498 379.316,547.776 381.116,547.776 C382.574,547.776 383.546,547.074 383.906,545.832 L385.67,545.832 C385.166,547.794 383.564,549.162 381.116,549.162 C378.308,549.162 376.31,547.182 376.31,544.05 Z M397.328,544.05 C397.328,547.182 395.078,549.162 392.27,549.162 C389.48,549.162 387.356,547.182 387.356,544.05 C387.356,540.936 389.552,538.974 392.342,538.974 C395.15,538.974 397.328,540.936 397.328,544.05 Z M389.03,544.05 C389.03,546.552 390.56,547.722 392.27,547.722 C393.98,547.722 395.654,546.552 395.654,544.05 C395.654,541.566 394.016,540.396 392.324,540.396 C390.596,540.396 389.03,541.566 389.03,544.05 Z M406.826,549 L406.826,543.42 C406.826,541.404 405.728,540.378 404.072,540.378 C402.398,540.378 401.246,541.422 401.246,543.546 L401.246,549 L399.608,549 L399.608,539.136 L401.246,539.136 L401.246,540.54 C401.894,539.514 403.082,538.956 404.414,538.956 C406.7,538.956 408.446,540.36 408.446,543.186 L408.446,549 L406.826,549 Z M410.636,544.032 C410.636,540.954 412.67,538.974 415.334,538.974 C416.882,538.974 418.304,539.766 418.988,540.9 L418.988,535.68 L420.644,535.68 L420.644,549 L418.988,549 L418.988,547.146 C418.394,548.244 417.116,549.162 415.316,549.162 C412.67,549.162 410.636,547.092 410.636,544.032 Z M418.988,544.05 C418.988,541.764 417.44,540.396 415.64,540.396 C413.84,540.396 412.31,541.71 412.31,544.032 C412.31,546.354 413.84,547.722 415.64,547.722 C417.44,547.722 418.988,546.372 418.988,544.05 Z" id="Transactions-per-sec" fill="#FFFFFF" transform="translate(309.128000, 544.491000) rotate(-360.000000) translate(-309.128000, -544.491000) "></path>
                    <path d="M194.136,481.436 L194.136,482.786 L189.024,482.786 L189.024,486.98 L193.596,486.98 L193.596,488.33 L189.024,488.33 L189.024,492.65 L194.136,492.65 L194.136,494 L187.386,494 L187.386,481.436 L194.136,481.436 Z M201.888,494 L199.548,490.328 L197.298,494 L195.588,494 L198.774,489.104 L195.588,484.136 L197.442,484.136 L199.782,487.79 L202.014,484.136 L203.724,484.136 L200.556,489.014 L203.742,494 L201.888,494 Z M205.482,494 L205.482,484.136 L207.12,484.136 L207.12,494 L205.482,494 Z M206.328,482.534 C205.698,482.534 205.212,482.048 205.212,481.418 C205.212,480.788 205.698,480.302 206.328,480.302 C206.922,480.302 207.408,480.788 207.408,481.418 C207.408,482.048 206.922,482.534 206.328,482.534 Z M217.122,491.318 C217.122,492.938 215.7,494.162 213.522,494.162 C211.218,494.162 209.598,492.902 209.49,491.102 L211.182,491.102 C211.272,492.056 212.118,492.776 213.504,492.776 C214.8,492.776 215.52,492.128 215.52,491.318 C215.52,489.122 209.688,490.4 209.688,486.728 C209.688,485.216 211.11,483.974 213.306,483.974 C215.484,483.974 216.924,485.144 217.032,487.07 L215.394,487.07 C215.322,486.08 214.566,485.36 213.252,485.36 C212.046,485.36 211.326,485.936 211.326,486.728 C211.326,489.068 217.05,487.79 217.122,491.318 Z M219.906,491.3 L219.906,485.486 L218.628,485.486 L218.628,484.136 L219.906,484.136 L219.906,481.652 L221.544,481.652 L221.544,484.136 L224.118,484.136 L224.118,485.486 L221.544,485.486 L221.544,491.3 C221.544,492.272 221.904,492.614 222.912,492.614 L224.118,492.614 L224.118,494 L222.642,494 C220.896,494 219.906,493.28 219.906,491.3 Z M226.218,494 L226.218,484.136 L227.856,484.136 L227.856,494 L226.218,494 Z M227.064,482.534 C226.434,482.534 225.948,482.048 225.948,481.418 C225.948,480.788 226.434,480.302 227.064,480.302 C227.658,480.302 228.144,480.788 228.144,481.418 C228.144,482.048 227.658,482.534 227.064,482.534 Z M237.984,494 L237.984,488.42 C237.984,486.404 236.886,485.378 235.23,485.378 C233.556,485.378 232.404,486.422 232.404,488.546 L232.404,494 L230.766,494 L230.766,484.136 L232.404,484.136 L232.404,485.54 C233.052,484.514 234.24,483.956 235.572,483.956 C237.858,483.956 239.604,485.36 239.604,488.186 L239.604,494 L237.984,494 Z M241.794,489.032 C241.794,485.954 243.828,483.974 246.474,483.974 C248.274,483.974 249.57,484.874 250.146,485.936 L250.146,484.136 L251.802,484.136 L251.802,494.216 C251.802,496.934 249.984,498.86 247.086,498.86 C244.494,498.86 242.64,497.546 242.316,495.44 L243.936,495.44 C244.296,496.628 245.466,497.438 247.086,497.438 C248.832,497.438 250.146,496.322 250.146,494.216 L250.146,492.146 C249.552,493.208 248.274,494.162 246.474,494.162 C243.828,494.162 241.794,492.092 241.794,489.032 Z M250.146,489.05 C250.146,486.764 248.598,485.396 246.798,485.396 C244.998,485.396 243.468,486.71 243.468,489.032 C243.468,491.354 244.998,492.722 246.798,492.722 C248.598,492.722 250.146,491.372 250.146,489.05 Z" id="Existing" fill="#FFFFFF" transform="translate(219.594000, 489.581000) rotate(-360.000000) translate(-219.594000, -489.581000) "></path>
                    <path d="M402.856,481.454 L402.856,482.75 L396.772,492.578 L402.892,492.578 L402.892,494 L394.828,494 L394.828,492.704 L400.912,482.876 L394.9,482.876 L394.9,481.454 L402.856,481.454 Z M405.244,494 L405.244,484.136 L406.882,484.136 L406.882,494 L405.244,494 Z M406.09,482.534 C405.46,482.534 404.974,482.048 404.974,481.418 C404.974,480.788 405.46,480.302 406.09,480.302 C406.684,480.302 407.17,480.788 407.17,481.418 C407.17,482.048 406.684,482.534 406.09,482.534 Z M409.792,494 L409.792,480.68 L411.43,480.68 L411.43,494 L409.792,494 Z M414.34,494 L414.34,480.68 L415.978,480.68 L415.978,494 L414.34,494 Z M418.888,494 L418.888,484.136 L420.526,484.136 L420.526,494 L418.888,494 Z M419.734,482.534 C419.104,482.534 418.618,482.048 418.618,481.418 C418.618,480.788 419.104,480.302 419.734,480.302 C420.328,480.302 420.814,480.788 420.814,481.418 C420.814,482.048 420.328,482.534 419.734,482.534 Z M422.824,489.032 C422.824,485.954 424.858,483.974 427.522,483.974 C429.322,483.974 430.618,484.91 431.176,485.936 L431.176,484.136 L432.832,484.136 L432.832,498.68 L431.176,498.68 L431.176,492.182 C430.618,493.19 429.304,494.162 427.468,494.162 C424.858,494.162 422.824,492.092 422.824,489.032 Z M431.176,489.05 C431.176,486.764 429.628,485.396 427.828,485.396 C426.028,485.396 424.498,486.71 424.498,489.032 C424.498,491.354 426.028,492.722 427.828,492.722 C429.628,492.722 431.176,491.372 431.176,489.05 Z M435.112,489.032 C435.112,485.954 437.146,483.974 439.792,483.974 C441.628,483.974 442.888,484.91 443.464,485.936 L443.464,484.136 L445.12,484.136 L445.12,494 L443.464,494 L443.464,492.164 C442.87,493.226 441.592,494.162 439.774,494.162 C437.146,494.162 435.112,492.092 435.112,489.032 Z M443.464,489.05 C443.464,486.764 441.916,485.396 440.116,485.396 C438.316,485.396 436.786,486.71 436.786,489.032 C436.786,491.354 438.316,492.722 440.116,492.722 C441.916,492.722 443.464,491.372 443.464,489.05 Z" id="Zilliqa" fill="#FFFFFF" transform="translate(419.974000, 489.491000) rotate(-360.000000) translate(-419.974000, -489.491000) "></path>
                    <path d="M15.26,368.766 L21.42,368.766 L21.42,370.166 L16.73,370.166 L16.73,372.952 C17.108,372.448 17.934,372.028 18.844,372.028 C21.35,372.028 22.12,373.89 22.12,375.43 C22.12,377.46 20.958,379 18.592,379 C16.492,379 15.274,377.838 15.036,376.242 L16.59,376.242 C16.8,377.11 17.528,377.67 18.606,377.67 C19.978,377.67 20.594,376.732 20.594,375.472 C20.594,374.142 19.936,373.386 18.606,373.386 C17.668,373.386 17.038,373.904 16.772,374.66 L15.26,374.66 L15.26,368.766 Z M23.8793333,373.764 C23.8793333,370.852 24.6633333,368.612 27.5193333,368.612 C30.3753333,368.612 31.1593333,370.852 31.1593333,373.764 C31.1593333,376.732 30.3753333,378.972 27.5193333,378.972 C24.6633333,378.972 23.8793333,376.732 23.8793333,373.764 Z M29.5913333,373.764 C29.5913333,371.86 29.3813333,370.068 27.5193333,370.068 C25.6573333,370.068 25.4473333,371.86 25.4473333,373.764 C25.4473333,375.766 25.6573333,377.516 27.5193333,377.516 C29.3813333,377.516 29.5913333,375.766 29.5913333,373.764 Z M32.9466667,373.764 C32.9466667,370.852 33.7306667,368.612 36.5866667,368.612 C39.4426667,368.612 40.2266667,370.852 40.2266667,373.764 C40.2266667,376.732 39.4426667,378.972 36.5866667,378.972 C33.7306667,378.972 32.9466667,376.732 32.9466667,373.764 Z M38.6586667,373.764 C38.6586667,371.86 38.4486667,370.068 36.5866667,370.068 C34.7246667,370.068 34.5146667,371.86 34.5146667,373.764 C34.5146667,375.766 34.7246667,377.516 36.5866667,377.516 C38.4486667,377.516 38.6586667,375.766 38.6586667,373.764 Z" id="500" fill="#ABB9C5"></path>
                    <path d="M15.932,289 L15.932,280.25 L14.63,280.25 L14.63,278.794 L17.542,278.794 L17.542,289 L15.932,289 Z M19.8333333,283.764 C19.8333333,280.852 20.6173333,278.612 23.4733333,278.612 C26.3293333,278.612 27.1133333,280.852 27.1133333,283.764 C27.1133333,286.732 26.3293333,288.972 23.4733333,288.972 C20.6173333,288.972 19.8333333,286.732 19.8333333,283.764 Z M25.5453333,283.764 C25.5453333,281.86 25.3353333,280.068 23.4733333,280.068 C21.6113333,280.068 21.4013333,281.86 21.4013333,283.764 C21.4013333,285.766 21.6113333,287.516 23.4733333,287.516 C25.3353333,287.516 25.5453333,285.766 25.5453333,283.764 Z M28.9006667,283.764 C28.9006667,280.852 29.6846667,278.612 32.5406667,278.612 C35.3966667,278.612 36.1806667,280.852 36.1806667,283.764 C36.1806667,286.732 35.3966667,288.972 32.5406667,288.972 C29.6846667,288.972 28.9006667,286.732 28.9006667,283.764 Z M34.6126667,283.764 C34.6126667,281.86 34.4026667,280.068 32.5406667,280.068 C30.6786667,280.068 30.4686667,281.86 30.4686667,283.764 C30.4686667,285.766 30.6786667,287.516 32.5406667,287.516 C34.4026667,287.516 34.6126667,285.766 34.6126667,283.764 Z M37.968,283.764 C37.968,280.852 38.752,278.612 41.608,278.612 C44.464,278.612 45.248,280.852 45.248,283.764 C45.248,286.732 44.464,288.972 41.608,288.972 C38.752,288.972 37.968,286.732 37.968,283.764 Z M43.68,283.764 C43.68,281.86 43.47,280.068 41.608,280.068 C39.746,280.068 39.536,281.86 39.536,283.764 C39.536,285.766 39.746,287.516 41.608,287.516 C43.47,287.516 43.68,285.766 43.68,283.764 Z" id="1000" fill="#ABB9C5"></path>
                    <path d="M15.932,199 L15.932,190.25 L14.63,190.25 L14.63,188.794 L17.542,188.794 L17.542,199 L15.932,199 Z M20.2533333,188.766 L26.4133333,188.766 L26.4133333,190.166 L21.7233333,190.166 L21.7233333,192.952 C22.1013333,192.448 22.9273333,192.028 23.8373333,192.028 C26.3433333,192.028 27.1133333,193.89 27.1133333,195.43 C27.1133333,197.46 25.9513333,199 23.5853333,199 C21.4853333,199 20.2673333,197.838 20.0293333,196.242 L21.5833333,196.242 C21.7933333,197.11 22.5213333,197.67 23.5993333,197.67 C24.9713333,197.67 25.5873333,196.732 25.5873333,195.472 C25.5873333,194.142 24.9293333,193.386 23.5993333,193.386 C22.6613333,193.386 22.0313333,193.904 21.7653333,194.66 L20.2533333,194.66 L20.2533333,188.766 Z M28.8726667,193.764 C28.8726667,190.852 29.6566667,188.612 32.5126667,188.612 C35.3686667,188.612 36.1526667,190.852 36.1526667,193.764 C36.1526667,196.732 35.3686667,198.972 32.5126667,198.972 C29.6566667,198.972 28.8726667,196.732 28.8726667,193.764 Z M34.5846667,193.764 C34.5846667,191.86 34.3746667,190.068 32.5126667,190.068 C30.6506667,190.068 30.4406667,191.86 30.4406667,193.764 C30.4406667,195.766 30.6506667,197.516 32.5126667,197.516 C34.3746667,197.516 34.5846667,195.766 34.5846667,193.764 Z M37.94,193.764 C37.94,190.852 38.724,188.612 41.58,188.612 C44.436,188.612 45.22,190.852 45.22,193.764 C45.22,196.732 44.436,198.972 41.58,198.972 C38.724,198.972 37.94,196.732 37.94,193.764 Z M43.652,193.764 C43.652,191.86 43.442,190.068 41.58,190.068 C39.718,190.068 39.508,191.86 39.508,193.764 C39.508,195.766 39.718,197.516 41.58,197.516 C43.442,197.516 43.652,195.766 43.652,193.764 Z" id="1500" fill="#ABB9C5"></path>
                    <path d="M14.714,108.86 L14.714,107.698 C17.122,105.584 19.656,103.736 19.656,101.734 C19.656,100.67 19.194,99.942 18.004,99.942 C16.884,99.942 16.282,100.726 16.24,101.874 L14.7,101.874 C14.756,99.662 16.184,98.584 17.99,98.584 C20.062,98.584 21.238,99.83 21.238,101.664 C21.238,104.142 18.718,106.032 17.08,107.53 L21.518,107.53 L21.518,108.86 L14.714,108.86 Z M23.0113333,103.764 C23.0113333,100.852 23.7953333,98.612 26.6513333,98.612 C29.5073333,98.612 30.2913333,100.852 30.2913333,103.764 C30.2913333,106.732 29.5073333,108.972 26.6513333,108.972 C23.7953333,108.972 23.0113333,106.732 23.0113333,103.764 Z M28.7233333,103.764 C28.7233333,101.86 28.5133333,100.068 26.6513333,100.068 C24.7893333,100.068 24.5793333,101.86 24.5793333,103.764 C24.5793333,105.766 24.7893333,107.516 26.6513333,107.516 C28.5133333,107.516 28.7233333,105.766 28.7233333,103.764 Z M32.0786667,103.764 C32.0786667,100.852 32.8626667,98.612 35.7186667,98.612 C38.5746667,98.612 39.3586667,100.852 39.3586667,103.764 C39.3586667,106.732 38.5746667,108.972 35.7186667,108.972 C32.8626667,108.972 32.0786667,106.732 32.0786667,103.764 Z M37.7906667,103.764 C37.7906667,101.86 37.5806667,100.068 35.7186667,100.068 C33.8566667,100.068 33.6466667,101.86 33.6466667,103.764 C33.6466667,105.766 33.8566667,107.516 35.7186667,107.516 C37.5806667,107.516 37.7906667,105.766 37.7906667,103.764 Z M41.146,103.764 C41.146,100.852 41.93,98.612 44.786,98.612 C47.642,98.612 48.426,100.852 48.426,103.764 C48.426,106.732 47.642,108.972 44.786,108.972 C41.93,108.972 41.146,106.732 41.146,103.764 Z M46.858,103.764 C46.858,101.86 46.648,100.068 44.786,100.068 C42.924,100.068 42.714,101.86 42.714,103.764 C42.714,105.766 42.924,107.516 44.786,107.516 C46.648,107.516 46.858,105.766 46.858,103.764 Z" id="2000" fill="#ABB9C5"></path>
                    
                    <g id="Group-41" transform="translate(174.000000, 382.000000)">
                        <path d="M29.8546666,5.384 L37.5666666,5.384 L37.5666666,6.744 L33.1186666,17 L31.2786666,17 L35.7746666,6.936 L29.8546666,6.936 L29.8546666,5.384 Z M39.6733333,11.976 L39.6733333,10.44 L46.2493333,10.44 L46.2493333,11.976 L39.6733333,11.976 Z M49.956,17 L49.956,7 L48.468,7 L48.468,5.336 L51.796,5.336 L51.796,17 L49.956,17 Z M54.8946667,5.304 L61.9346667,5.304 L61.9346667,6.904 L56.5746667,6.904 L56.5746667,10.088 C57.0066667,9.512 57.9506667,9.032 58.9906667,9.032 C61.8546667,9.032 62.7346667,11.16 62.7346667,12.92 C62.7346667,15.24 61.4066667,17 58.7026667,17 C56.3026667,17 54.9106667,15.672 54.6386667,13.848 L56.4146667,13.848 C56.6546667,14.84 57.4866667,15.48 58.7186667,15.48 C60.2866667,15.48 60.9906667,14.408 60.9906667,12.968 C60.9906667,11.448 60.2386667,10.584 58.7186667,10.584 C57.6466667,10.584 56.9266667,11.176 56.6226667,12.04 L54.8946667,12.04 L54.8946667,5.304 Z" id="7-15" fill="#FFFFFF"></path>
                        <g id="Group-40" transform="translate(0.000000, 30.000000)">
                            <rect id="Rectangle-4" fill="#1E88E5" opacity="0.4921875" x="5" y="5" width="83" height="34"></rect>
                            <polyline id="Path-2" stroke="#1E88E5" stroke-width="2" points="5 39 5 27.7407943 5 5 87.6157004 5 87.6157004 38.9397327"></polyline>
                            <polygon id="Fill-58" fill="#FFFFFF" points="3.67923339 36.6792334 4.67 33 5.66076661 36.6792334 9.34 37.67 5.66076661 38.6607666 4.67 42.34 3.67923339 38.6607666 0 37.67"></polygon>
                            <polygon id="Fill-58" fill="#FFFFFF" points="86.6792334 3.67923339 87.67 0 88.6607666 3.67923339 92.34 4.67 88.6607666 5.66076661 87.67 9.34 86.6792334 5.66076661 83 4.67"></polygon>
                        </g>
                    </g>
                </g>
            </g>
        </g>
    </g>
</svg>