<?xml version="1.0" encoding="UTF-8"?>
<svg width="375px" height="562px" viewBox="0 0 375 562" version="1.1" xmlns="http://www.w3.org/2000/svg" xmlns:xlink="http://www.w3.org/1999/xlink">
    <!-- Generator: Sketch 50.2 (55047) - http://www.bohemiancoding.com/sketch -->
    <title>Mobile Graph - Home Page</title>
    <desc>Created with Sketch.</desc>
    <defs>
        <rect id="path-1" x="0" y="0" width="385" height="450" rx="6"></rect>
        <filter x="-17.1%" y="-12.7%" width="134.3%" height="129.3%" filterUnits="objectBoundingBox" id="filter-3">
            <feOffset dx="0" dy="9" in="SourceAlpha" result="shadowOffsetOuter1"></feOffset>
            <feGaussianBlur stdDeviation="20.5" in="shadowOffsetOuter1" result="shadowBlurOuter1"></feGaussianBlur>
            <feColorMatrix values="0 0 0 0 0   0 0 0 0 0   0 0 0 0 0  0 0 0 0.346127717 0" type="matrix" in="shadowBlurOuter1"></feColorMatrix>
        </filter>
    </defs>
    <g id="Website" stroke="none" stroke-width="1" fill="none" fill-rule="evenodd">
        <g id="Home-Page---Mobile" transform="translate(0.000000, -869.000000)">
            <g id="Group" transform="translate(0.000000, 678.000000)">
                <g id="Group-7">
                    <g id="Mobile-Graph---Home-Page" transform="translate(0.000000, 223.000000)">
                        <g id="Graph-1">
                            <g id="Group-20">
                                <g id="Graph-background">
                                    <mask id="mask-2" fill="white">
                                        <use xlink:href="#path-1"></use>
                                    </mask>
                                    <g id="Mask">
                                        <use fill="black" fill-opacity="1" filter="url(#filter-3)" xlink:href="#path-1"></use>
                                        <use fill="#02172D" fill-rule="evenodd" xlink:href="#path-1"></use>
                                    </g>
                                    <rect id="Rectangle-7" fill="#022242" opacity="0.528459821" mask="url(#mask-2)" x="-68" y="180" width="619.140083" height="90"></rect>
                                    <rect id="Rectangle-7" fill="#022242" opacity="0.528459821" mask="url(#mask-2)" x="-68" y="0" width="619.140083" height="90"></rect>
                                    <rect id="Rectangle-7" fill="#022242" opacity="0.528459821" mask="url(#mask-2)" x="-69.2038835" y="363" width="619.140083" height="90"></rect>
                                </g>
                            </g>
                        </g>
                        <path d="M80.612,513.786 L80.612,512.454 L89.108,512.454 L89.108,513.786 L85.688,513.786 L85.688,525 L84.05,525 L84.05,513.786 L80.612,513.786 Z M92.882,519.636 L92.882,525 L91.244,525 L91.244,515.136 L92.882,515.136 L92.882,516.738 C93.44,515.64 94.502,514.956 96.068,514.956 L96.068,516.648 L95.636,516.648 C94.07,516.648 92.882,517.35 92.882,519.636 Z M97.466,520.032 C97.466,516.954 99.5,514.974 102.146,514.974 C103.982,514.974 105.242,515.91 105.818,516.936 L105.818,515.136 L107.474,515.136 L107.474,525 L105.818,525 L105.818,523.164 C105.224,524.226 103.946,525.162 102.128,525.162 C99.5,525.162 97.466,523.092 97.466,520.032 Z M105.818,520.05 C105.818,517.764 104.27,516.396 102.47,516.396 C100.67,516.396 99.14,517.71 99.14,520.032 C99.14,522.354 100.67,523.722 102.47,523.722 C104.27,523.722 105.818,522.372 105.818,520.05 Z M117.584,525 L117.584,519.42 C117.584,517.404 116.486,516.378 114.83,516.378 C113.156,516.378 112.004,517.422 112.004,519.546 L112.004,525 L110.366,525 L110.366,515.136 L112.004,515.136 L112.004,516.54 C112.652,515.514 113.84,514.956 115.172,514.956 C117.458,514.956 119.204,516.36 119.204,519.186 L119.204,525 L117.584,525 Z M129.098,522.318 C129.098,523.938 127.676,525.162 125.498,525.162 C123.194,525.162 121.574,523.902 121.466,522.102 L123.158,522.102 C123.248,523.056 124.094,523.776 125.48,523.776 C126.776,523.776 127.496,523.128 127.496,522.318 C127.496,520.122 121.664,521.4 121.664,517.728 C121.664,516.216 123.086,514.974 125.282,514.974 C127.46,514.974 128.9,516.144 129.008,518.07 L127.37,518.07 C127.298,517.08 126.542,516.36 125.228,516.36 C124.022,516.36 123.302,516.936 123.302,517.728 C123.302,520.068 129.026,518.79 129.098,522.318 Z M130.91,520.032 C130.91,516.954 132.944,514.974 135.59,514.974 C137.426,514.974 138.686,515.91 139.262,516.936 L139.262,515.136 L140.918,515.136 L140.918,525 L139.262,525 L139.262,523.164 C138.668,524.226 137.39,525.162 135.572,525.162 C132.944,525.162 130.91,523.092 130.91,520.032 Z M139.262,520.05 C139.262,517.764 137.714,516.396 135.914,516.396 C134.114,516.396 132.584,517.71 132.584,520.032 C132.584,522.354 134.114,523.722 135.914,523.722 C137.714,523.722 139.262,522.372 139.262,520.05 Z M143.198,520.05 C143.198,516.954 145.196,514.974 148.004,514.974 C150.452,514.974 152.054,516.234 152.558,518.304 L150.794,518.304 C150.452,517.116 149.462,516.36 148.004,516.36 C146.204,516.36 144.872,517.638 144.872,520.05 C144.872,522.498 146.204,523.776 148.004,523.776 C149.462,523.776 150.434,523.074 150.794,521.832 L152.558,521.832 C152.054,523.794 150.452,525.162 148.004,525.162 C145.196,525.162 143.198,523.182 143.198,520.05 Z M155.216,522.3 L155.216,516.486 L153.938,516.486 L153.938,515.136 L155.216,515.136 L155.216,512.652 L156.854,512.652 L156.854,515.136 L159.428,515.136 L159.428,516.486 L156.854,516.486 L156.854,522.3 C156.854,523.272 157.214,523.614 158.222,523.614 L159.428,523.614 L159.428,525 L157.952,525 C156.206,525 155.216,524.28 155.216,522.3 Z M161.528,525 L161.528,515.136 L163.166,515.136 L163.166,525 L161.528,525 Z M162.374,513.534 C161.744,513.534 161.258,513.048 161.258,512.418 C161.258,511.788 161.744,511.302 162.374,511.302 C162.968,511.302 163.454,511.788 163.454,512.418 C163.454,513.048 162.968,513.534 162.374,513.534 Z M175.436,520.05 C175.436,523.182 173.186,525.162 170.378,525.162 C167.588,525.162 165.464,523.182 165.464,520.05 C165.464,516.936 167.66,514.974 170.45,514.974 C173.258,514.974 175.436,516.936 175.436,520.05 Z M167.138,520.05 C167.138,522.552 168.668,523.722 170.378,523.722 C172.088,523.722 173.762,522.552 173.762,520.05 C173.762,517.566 172.124,516.396 170.432,516.396 C168.704,516.396 167.138,517.566 167.138,520.05 Z M184.934,525 L184.934,519.42 C184.934,517.404 183.836,516.378 182.18,516.378 C180.506,516.378 179.354,517.422 179.354,519.546 L179.354,525 L177.716,525 L177.716,515.136 L179.354,515.136 L179.354,516.54 C180.002,515.514 181.19,514.956 182.522,514.956 C184.808,514.956 186.554,516.36 186.554,519.186 L186.554,525 L184.934,525 Z M196.448,522.318 C196.448,523.938 195.026,525.162 192.848,525.162 C190.544,525.162 188.924,523.902 188.816,522.102 L190.508,522.102 C190.598,523.056 191.444,523.776 192.83,523.776 C194.126,523.776 194.846,523.128 194.846,522.318 C194.846,520.122 189.014,521.4 189.014,517.728 C189.014,516.216 190.436,514.974 192.632,514.974 C194.81,514.974 196.25,516.144 196.358,518.07 L194.72,518.07 C194.648,517.08 193.892,516.36 192.578,516.36 C191.372,516.36 190.652,516.936 190.652,517.728 C190.652,520.068 196.376,518.79 196.448,522.318 Z M205.436,516.954 C206.03,515.91 207.326,514.974 209.126,514.974 C211.772,514.974 213.806,516.954 213.806,520.032 C213.806,523.092 211.772,525.162 209.126,525.162 C207.326,525.162 206.048,524.19 205.436,523.182 L205.436,529.68 L203.798,529.68 L203.798,515.136 L205.436,515.136 L205.436,516.954 Z M212.132,520.032 C212.132,517.71 210.602,516.396 208.784,516.396 C207.002,516.396 205.436,517.764 205.436,520.05 C205.436,522.372 207.002,523.722 208.784,523.722 C210.602,523.722 212.132,522.354 212.132,520.032 Z M220.28,516.36 C218.678,516.36 217.346,517.422 217.166,519.348 L223.394,519.348 C223.412,517.422 221.972,516.36 220.28,516.36 Z M224.888,521.958 C224.384,523.758 222.8,525.162 220.352,525.162 C217.544,525.162 215.474,523.182 215.474,520.05 C215.474,516.936 217.472,514.974 220.352,514.974 C223.214,514.974 225.086,516.99 225.086,519.69 C225.086,520.05 225.068,520.338 225.032,520.68 L217.148,520.68 C217.274,522.678 218.678,523.776 220.352,523.776 C221.828,523.776 222.764,523.02 223.124,521.958 L224.888,521.958 Z M229.004,519.636 L229.004,525 L227.366,525 L227.366,515.136 L229.004,515.136 L229.004,516.738 C229.562,515.64 230.624,514.956 232.19,514.956 L232.19,516.648 L231.758,516.648 C230.192,516.648 229.004,517.35 229.004,519.636 Z M246.218,522.318 C246.218,523.938 244.796,525.162 242.618,525.162 C240.314,525.162 238.694,523.902 238.586,522.102 L240.278,522.102 C240.368,523.056 241.214,523.776 242.6,523.776 C243.896,523.776 244.616,523.128 244.616,522.318 C244.616,520.122 238.784,521.4 238.784,517.728 C238.784,516.216 240.206,514.974 242.402,514.974 C244.58,514.974 246.02,516.144 246.128,518.07 L244.49,518.07 C244.418,517.08 243.662,516.36 242.348,516.36 C241.142,516.36 240.422,516.936 240.422,517.728 C240.422,520.068 246.146,518.79 246.218,522.318 Z M252.836,516.36 C251.234,516.36 249.902,517.422 249.722,519.348 L255.95,519.348 C255.968,517.422 254.528,516.36 252.836,516.36 Z M257.444,521.958 C256.94,523.758 255.356,525.162 252.908,525.162 C250.1,525.162 248.03,523.182 248.03,520.05 C248.03,516.936 250.028,514.974 252.908,514.974 C255.77,514.974 257.642,516.99 257.642,519.69 C257.642,520.05 257.624,520.338 257.588,520.68 L249.704,520.68 C249.83,522.678 251.234,523.776 252.908,523.776 C254.384,523.776 255.32,523.02 255.68,521.958 L257.444,521.958 Z M259.31,520.05 C259.31,516.954 261.308,514.974 264.116,514.974 C266.564,514.974 268.166,516.234 268.67,518.304 L266.906,518.304 C266.564,517.116 265.574,516.36 264.116,516.36 C262.316,516.36 260.984,517.638 260.984,520.05 C260.984,522.498 262.316,523.776 264.116,523.776 C265.574,523.776 266.546,523.074 266.906,521.832 L268.67,521.832 C268.166,523.794 266.564,525.162 264.116,525.162 C261.308,525.162 259.31,523.182 259.31,520.05 Z M280.328,520.05 C280.328,523.182 278.078,525.162 275.27,525.162 C272.48,525.162 270.356,523.182 270.356,520.05 C270.356,516.936 272.552,514.974 275.342,514.974 C278.15,514.974 280.328,516.936 280.328,520.05 Z M272.03,520.05 C272.03,522.552 273.56,523.722 275.27,523.722 C276.98,523.722 278.654,522.552 278.654,520.05 C278.654,517.566 277.016,516.396 275.324,516.396 C273.596,516.396 272.03,517.566 272.03,520.05 Z M289.826,525 L289.826,519.42 C289.826,517.404 288.728,516.378 287.072,516.378 C285.398,516.378 284.246,517.422 284.246,519.546 L284.246,525 L282.608,525 L282.608,515.136 L284.246,515.136 L284.246,516.54 C284.894,515.514 286.082,514.956 287.414,514.956 C289.7,514.956 291.446,516.36 291.446,519.186 L291.446,525 L289.826,525 Z M293.636,520.032 C293.636,516.954 295.67,514.974 298.334,514.974 C299.882,514.974 301.304,515.766 301.988,516.9 L301.988,511.68 L303.644,511.68 L303.644,525 L301.988,525 L301.988,523.146 C301.394,524.244 300.116,525.162 298.316,525.162 C295.67,525.162 293.636,523.092 293.636,520.032 Z M301.988,520.05 C301.988,517.764 300.44,516.396 298.64,516.396 C296.84,516.396 295.31,517.71 295.31,520.032 C295.31,522.354 296.84,523.722 298.64,523.722 C300.44,523.722 301.988,522.372 301.988,520.05 Z" id="Transactions-per-sec" fill="#FFFFFF" transform="translate(192.128000, 520.491000) rotate(-360.000000) translate(-192.128000, -520.491000) "></path>
                        <path d="M99.136,470.436 L99.136,471.786 L94.024,471.786 L94.024,475.98 L98.596,475.98 L98.596,477.33 L94.024,477.33 L94.024,481.65 L99.136,481.65 L99.136,483 L92.386,483 L92.386,470.436 L99.136,470.436 Z M106.888,483 L104.548,479.328 L102.298,483 L100.588,483 L103.774,478.104 L100.588,473.136 L102.442,473.136 L104.782,476.79 L107.014,473.136 L108.724,473.136 L105.556,478.014 L108.742,483 L106.888,483 Z M110.482,483 L110.482,473.136 L112.12,473.136 L112.12,483 L110.482,483 Z M111.328,471.534 C110.698,471.534 110.212,471.048 110.212,470.418 C110.212,469.788 110.698,469.302 111.328,469.302 C111.922,469.302 112.408,469.788 112.408,470.418 C112.408,471.048 111.922,471.534 111.328,471.534 Z M122.122,480.318 C122.122,481.938 120.7,483.162 118.522,483.162 C116.218,483.162 114.598,481.902 114.49,480.102 L116.182,480.102 C116.272,481.056 117.118,481.776 118.504,481.776 C119.8,481.776 120.52,481.128 120.52,480.318 C120.52,478.122 114.688,479.4 114.688,475.728 C114.688,474.216 116.11,472.974 118.306,472.974 C120.484,472.974 121.924,474.144 122.032,476.07 L120.394,476.07 C120.322,475.08 119.566,474.36 118.252,474.36 C117.046,474.36 116.326,474.936 116.326,475.728 C116.326,478.068 122.05,476.79 122.122,480.318 Z M124.906,480.3 L124.906,474.486 L123.628,474.486 L123.628,473.136 L124.906,473.136 L124.906,470.652 L126.544,470.652 L126.544,473.136 L129.118,473.136 L129.118,474.486 L126.544,474.486 L126.544,480.3 C126.544,481.272 126.904,481.614 127.912,481.614 L129.118,481.614 L129.118,483 L127.642,483 C125.896,483 124.906,482.28 124.906,480.3 Z M131.218,483 L131.218,473.136 L132.856,473.136 L132.856,483 L131.218,483 Z M132.064,471.534 C131.434,471.534 130.948,471.048 130.948,470.418 C130.948,469.788 131.434,469.302 132.064,469.302 C132.658,469.302 133.144,469.788 133.144,470.418 C133.144,471.048 132.658,471.534 132.064,471.534 Z M142.984,483 L142.984,477.42 C142.984,475.404 141.886,474.378 140.23,474.378 C138.556,474.378 137.404,475.422 137.404,477.546 L137.404,483 L135.766,483 L135.766,473.136 L137.404,473.136 L137.404,474.54 C138.052,473.514 139.24,472.956 140.572,472.956 C142.858,472.956 144.604,474.36 144.604,477.186 L144.604,483 L142.984,483 Z M146.794,478.032 C146.794,474.954 148.828,472.974 151.474,472.974 C153.274,472.974 154.57,473.874 155.146,474.936 L155.146,473.136 L156.802,473.136 L156.802,483.216 C156.802,485.934 154.984,487.86 152.086,487.86 C149.494,487.86 147.64,486.546 147.316,484.44 L148.936,484.44 C149.296,485.628 150.466,486.438 152.086,486.438 C153.832,486.438 155.146,485.322 155.146,483.216 L155.146,481.146 C154.552,482.208 153.274,483.162 151.474,483.162 C148.828,483.162 146.794,481.092 146.794,478.032 Z M155.146,478.05 C155.146,475.764 153.598,474.396 151.798,474.396 C149.998,474.396 148.468,475.71 148.468,478.032 C148.468,480.354 149.998,481.722 151.798,481.722 C153.598,481.722 155.146,480.372 155.146,478.05 Z" id="Existing" fill="#FFFFFF" transform="translate(124.594000, 478.581000) rotate(-360.000000) translate(-124.594000, -478.581000) "></path>
                        <path d="M244.856,470.454 L244.856,471.75 L238.772,481.578 L244.892,481.578 L244.892,483 L236.828,483 L236.828,481.704 L242.912,471.876 L236.9,471.876 L236.9,470.454 L244.856,470.454 Z M247.244,483 L247.244,473.136 L248.882,473.136 L248.882,483 L247.244,483 Z M248.09,471.534 C247.46,471.534 246.974,471.048 246.974,470.418 C246.974,469.788 247.46,469.302 248.09,469.302 C248.684,469.302 249.17,469.788 249.17,470.418 C249.17,471.048 248.684,471.534 248.09,471.534 Z M251.792,483 L251.792,469.68 L253.43,469.68 L253.43,483 L251.792,483 Z M256.34,483 L256.34,469.68 L257.978,469.68 L257.978,483 L256.34,483 Z M260.888,483 L260.888,473.136 L262.526,473.136 L262.526,483 L260.888,483 Z M261.734,471.534 C261.104,471.534 260.618,471.048 260.618,470.418 C260.618,469.788 261.104,469.302 261.734,469.302 C262.328,469.302 262.814,469.788 262.814,470.418 C262.814,471.048 262.328,471.534 261.734,471.534 Z M264.824,478.032 C264.824,474.954 266.858,472.974 269.522,472.974 C271.322,472.974 272.618,473.91 273.176,474.936 L273.176,473.136 L274.832,473.136 L274.832,487.68 L273.176,487.68 L273.176,481.182 C272.618,482.19 271.304,483.162 269.468,483.162 C266.858,483.162 264.824,481.092 264.824,478.032 Z M273.176,478.05 C273.176,475.764 271.628,474.396 269.828,474.396 C268.028,474.396 266.498,475.71 266.498,478.032 C266.498,480.354 268.028,481.722 269.828,481.722 C271.628,481.722 273.176,480.372 273.176,478.05 Z M277.112,478.032 C277.112,474.954 279.146,472.974 281.792,472.974 C283.628,472.974 284.888,473.91 285.464,474.936 L285.464,473.136 L287.12,473.136 L287.12,483 L285.464,483 L285.464,481.164 C284.87,482.226 283.592,483.162 281.774,483.162 C279.146,483.162 277.112,481.092 277.112,478.032 Z M285.464,478.05 C285.464,475.764 283.916,474.396 282.116,474.396 C280.316,474.396 278.786,475.71 278.786,478.032 C278.786,480.354 280.316,481.722 282.116,481.722 C283.916,481.722 285.464,480.372 285.464,478.05 Z" id="Zilliqa" fill="#FFFFFF" transform="translate(261.974000, 478.491000) rotate(-360.000000) translate(-261.974000, -478.491000) "></path>
                        <g id="Group-2" transform="translate(78.000000, 12.000000)">
                            <g id="Group-49" transform="translate(136.000000, 0.000000)">
                                <path d="M25.7493333,16.84 L25.7493333,15.512 C28.5013333,13.096 31.3973333,10.984 31.3973333,8.696 C31.3973333,7.48 30.8693333,6.648 29.5093333,6.648 C28.2293333,6.648 27.5413333,7.544 27.4933333,8.856 L25.7333333,8.856 C25.7973333,6.328 27.4293333,5.096 29.4933333,5.096 C31.8613333,5.096 33.2053333,6.52 33.2053333,8.616 C33.2053333,11.448 30.3253333,13.608 28.4533333,15.32 L33.5253333,15.32 L33.5253333,16.84 L25.7493333,16.84 Z M34.3519999,19.224 L35.488,14.808 L37.4719999,14.808 L35.536,19.224 L34.3519999,19.224 Z M44.5066666,17 L44.5066666,14.568 L38.7146666,14.568 L38.7146666,13.192 L44.0906667,5.48 L46.2986667,5.48 L46.2986667,12.984 L47.7866667,12.984 L47.7866667,14.568 L46.2986667,14.568 L46.2986667,17 L44.5066666,17 Z M40.8106667,12.984 L44.5866666,12.984 L44.5866666,7.336 L40.8106667,12.984 Z M51.3653334,10.904 C50.3733334,10.408 49.7013333,9.576 49.7013333,8.28 C49.7013333,6.584 50.9653334,5.128 53.5413334,5.128 C56.1173334,5.128 57.3813334,6.6 57.3813334,8.28 C57.3813334,9.528 56.6613334,10.44 55.7173334,10.904 C56.9013334,11.352 57.6853334,12.392 57.6853334,13.784 C57.6853334,15.912 55.9573334,17.288 53.5413334,17.288 C51.1413334,17.288 49.4133334,15.912 49.4133334,13.784 C49.4133334,12.376 50.1973334,11.336 51.3653334,10.904 Z M53.5413334,10.328 C54.7573334,10.328 55.6373334,9.56 55.6373334,8.504 C55.6373334,7.304 54.8213334,6.648 53.5413334,6.648 C52.2933334,6.648 51.4613334,7.288 51.4613334,8.52 C51.4613334,9.576 52.3253334,10.328 53.5413334,10.328 Z M53.5413334,11.704 C52.1973334,11.704 51.1573334,12.36 51.1573334,13.72 C51.1573334,14.904 52.0533334,15.768 53.5413334,15.768 C55.0133334,15.768 55.8933334,14.888 55.8933334,13.72 C55.8933334,12.408 54.9173334,11.704 53.5413334,11.704 Z M61.6800001,10.904 C60.688,10.408 60.0160001,9.576 60.0160001,8.28 C60.0160001,6.584 61.28,5.128 63.8560001,5.128 C66.432,5.128 67.6960001,6.6 67.6960001,8.28 C67.6960001,9.528 66.9760001,10.44 66.0320001,10.904 C67.2160001,11.352 68.0000001,12.392 68.0000001,13.784 C68.0000001,15.912 66.2720001,17.288 63.8560001,17.288 C61.4560001,17.288 59.7280001,15.912 59.7280001,13.784 C59.7280001,12.376 60.512,11.336 61.6800001,10.904 Z M63.8560001,10.328 C65.0720001,10.328 65.9520001,9.56 65.9520001,8.504 C65.9520001,7.304 65.1360001,6.648 63.8560001,6.648 C62.6080001,6.648 61.7760001,7.288 61.7760001,8.52 C61.7760001,9.576 62.64,10.328 63.8560001,10.328 Z M63.8560001,11.704 C62.512,11.704 61.4720001,12.36 61.4720001,13.72 C61.4720001,14.904 62.3680001,15.768 63.8560001,15.768 C65.3280001,15.768 66.2080001,14.888 66.2080001,13.72 C66.2080001,12.408 65.2320001,11.704 63.8560001,11.704 Z" id="2,488" fill="#FFFFFF"></path>
                                <g id="Group-37" transform="translate(0.000000, 33.000000)">
                                    <rect id="Rectangle-4" fill="#23A5A8" opacity="0.591183036" x="5" y="5" width="83" height="400"></rect>
                                    <polyline id="Path-2" stroke="#23A5A8" stroke-width="2" points="4.66415725 404.690191 4.66415725 272.228948 4.66415725 4.69019099 87.2798577 4.69019099 87.2798577 403.981163"></polyline>
                                    <circle id="Oval-4" fill="#FFFFFF" cx="4.5" cy="110.5" r="2.5"></circle>
                                    <circle id="Oval-4" fill="#FFFFFF" cx="87.5" cy="339.5" r="2.5"></circle>
                                    <polygon id="Fill-58" fill="#FFFFFF" points="3.67923339 399.679233 4.67 396 5.66076661 399.679233 9.34 400.67 5.66076661 401.660767 4.67 405.34 3.67923339 401.660767 0 400.67"></polygon>
                                    <polygon id="Fill-58" fill="#FFFFFF" points="86.6792334 399.679233 87.67 396 88.6607666 399.679233 92.34 400.67 88.6607666 401.660767 87.67 405.34 86.6792334 401.660767 83 400.67"></polygon>
                                    <polygon id="Fill-58" fill="#FFFFFF" points="3.67923339 21.6792334 4.67 18 5.66076661 21.6792334 9.34 22.67 5.66076661 23.6607666 4.67 27.34 3.67923339 23.6607666 0 22.67"></polygon>
                                    <polygon id="Fill-58" fill="#FFFFFF" points="86.6792334 3.67923339 87.67 0 88.6607666 3.67923339 92.34 4.67 88.6607666 5.66076661 87.67 9.34 86.6792334 5.66076661 83 4.67"></polygon>
                                    <polygon id="Fill-58" fill="#FFFFFF" points="3.67923339 274.679233 4.67 271 5.66076661 274.679233 9.34 275.67 5.66076661 276.660767 4.67 280.34 3.67923339 276.660767 0 275.67"></polygon>
                                    <polygon id="Fill-58" fill="#FFFFFF" points="86.6792334 194.679233 87.67 191 88.6607666 194.679233 92.34 195.67 88.6607666 196.660767 87.67 200.34 86.6792334 196.660767 83 195.67"></polygon>
                                </g>
                            </g>
                            <g id="Group-41" transform="translate(0.000000, 370.000000)">
                                <path d="M29.8546666,5.384 L37.5666666,5.384 L37.5666666,6.744 L33.1186666,17 L31.2786666,17 L35.7746666,6.936 L29.8546666,6.936 L29.8546666,5.384 Z M39.6733333,11.976 L39.6733333,10.44 L46.2493333,10.44 L46.2493333,11.976 L39.6733333,11.976 Z M49.956,17 L49.956,7 L48.468,7 L48.468,5.336 L51.796,5.336 L51.796,17 L49.956,17 Z M54.8946667,5.304 L61.9346667,5.304 L61.9346667,6.904 L56.5746667,6.904 L56.5746667,10.088 C57.0066667,9.512 57.9506667,9.032 58.9906667,9.032 C61.8546667,9.032 62.7346667,11.16 62.7346667,12.92 C62.7346667,15.24 61.4066667,17 58.7026667,17 C56.3026667,17 54.9106667,15.672 54.6386667,13.848 L56.4146667,13.848 C56.6546667,14.84 57.4866667,15.48 58.7186667,15.48 C60.2866667,15.48 60.9906667,14.408 60.9906667,12.968 C60.9906667,11.448 60.2386667,10.584 58.7186667,10.584 C57.6466667,10.584 56.9266667,11.176 56.6226667,12.04 L54.8946667,12.04 L54.8946667,5.304 Z" id="7-15" fill="#FFFFFF"></path>
                                <g id="Group-40" transform="translate(0.000000, 30.000000)">
                                    <rect id="Rectangle-4" fill="#1E88E5" opacity="0.4921875" x="5" y="5" width="83" height="34"></rect>
                                    <polyline id="Path-2" stroke="#1E88E5" stroke-width="2" points="5 39 5 27.7407943 5 5 87.6157004 5 87.6157004 38.9397327"></polyline>
                                    <polygon id="Fill-58" fill="#FFFFFF" points="3.67923339 36.6792334 4.67 33 5.66076661 36.6792334 9.34 37.67 5.66076661 38.6607666 4.67 42.34 3.67923339 38.6607666 0 37.67"></polygon>
                                    <polygon id="Fill-58" fill="#FFFFFF" points="86.6792334 3.67923339 87.67 0 88.6607666 3.67923339 92.34 4.67 88.6607666 5.66076661 87.67 9.34 86.6792334 5.66076661 83 4.67"></polygon>
                                </g>
                            </g>
                        </g>
                    </g>
                </g>
            </g>
        </g>
    </g>
</svg>