<?xml version="1.0" encoding="utf-8"?>
<!-- Generator: Adobe Illustrator 17.0.0, SVG Export Plug-In . SVG Version: 6.00 Build 0)  -->
<!DOCTYPE svg PUBLIC "-//W3C//DTD SVG 1.1//EN" "http://www.w3.org/Graphics/SVG/1.1/DTD/svg11.dtd">
<svg version="1.1" id="Layer_1" xmlns="http://www.w3.org/2000/svg" xmlns:xlink="http://www.w3.org/1999/xlink" x="0px" y="0px"
	 width="701px" height="586px" viewBox="0 0 701 586" enable-background="new 0 0 701 586" xml:space="preserve">
<rect id="Rectangle-4" x="419" y="82" opacity="0.5912" fill="#23A5A8" enable-background="new    " width="83" height="400"/>
<polyline id="Path-2" fill="none" stroke="#23A5A8" stroke-width="2" points="419.664,481.69 419.664,349.229 419.664,81.69 
	502.28,81.69 502.28,480.981 "/>
<circle id="Oval-4" fill="#FFFFFF" cx="419.5" cy="187.5" r="2.5"/>
<circle id="Oval-4_1_" fill="#FFFFFF" cx="502.5" cy="416.5" r="2.5"/>
<polygon id="Fill-58" fill="#FFFFFF" points="418.679,476.679 419.67,473 420.661,476.679 424.34,477.67 420.661,478.661 
	419.67,482.34 418.679,478.661 415,477.67 "/>
<polygon id="Fill-58_1_" fill="#FFFFFF" points="501.679,476.679 502.67,473 503.661,476.679 507.34,477.67 503.661,478.661 
	502.67,482.34 501.679,478.661 498,477.67 "/>
<polygon id="Fill-58_2_" fill="#FFFFFF" points="418.679,98.679 419.67,95 420.661,98.679 424.34,99.67 420.661,100.661 
	419.67,104.34 418.679,100.661 415,99.67 "/>
<polygon id="Fill-58_3_" fill="#FFFFFF" points="501.679,80.679 502.67,77 503.661,80.679 507.34,81.67 503.661,82.661 
	502.67,86.34 501.679,82.661 498,81.67 "/>
<polygon id="Fill-58_4_" fill="#FFFFFF" points="418.679,351.679 419.67,348 420.661,351.679 424.34,352.67 420.661,353.661 
	419.67,357.34 418.679,353.661 415,352.67 "/>
<polygon id="Fill-58_5_" fill="#FFFFFF" points="501.679,271.679 502.67,268 503.661,271.679 507.34,272.67 503.661,273.661 
	502.67,277.34 501.679,273.661 498,272.67 "/>
<path id="_x32__x2C_488" fill="#FFFFFF" d="M440.749,60.84v-1.328c2.752-2.416,5.648-4.528,5.648-6.816
	c0-1.216-0.528-2.048-1.888-2.048c-1.28,0-1.968,0.896-2.016,2.208h-1.76c0.064-2.528,1.696-3.76,3.76-3.76
	c2.368,0,3.712,1.424,3.712,3.52c0,2.832-2.88,4.992-4.752,6.704h5.072v1.52H440.749z M464.999,60.84v-1.328
	c2.752-2.416,5.648-4.528,5.648-6.816c0-1.216-0.528-2.048-1.888-2.048c-1.28,0-1.968,0.896-2.016,2.208h-1.76
	c0.064-2.528,1.696-3.76,3.76-3.76c2.368,0,3.712,1.424,3.712,3.52c0,2.832-2.88,4.992-4.752,6.704h5.072v1.52H464.999z
	 M449.352,63.224l1.136-4.416h1.984l-1.936,4.416H449.352z M476.68,54.904c-0.992-0.496-1.664-1.328-1.664-2.624
	c0-1.696,1.264-3.152,3.84-3.152c2.576,0,3.84,1.472,3.84,3.152c0,1.248-0.72,2.16-1.664,2.624c1.184,0.448,1.968,1.488,1.968,2.88
	c0,2.128-1.728,3.504-4.144,3.504c-2.4,0-4.128-1.376-4.128-3.504C474.728,56.376,475.512,55.336,476.68,54.904z M478.856,54.328
	c1.216,0,2.096-0.768,2.096-1.824c0-1.2-0.816-1.856-2.096-1.856c-1.248,0-2.08,0.64-2.08,1.872
	C476.776,53.576,477.64,54.328,478.856,54.328z M478.856,55.704c-1.344,0-2.384,0.656-2.384,2.016c0,1.184,0.896,2.048,2.384,2.048
	c1.472,0,2.352-0.88,2.352-2.048C481.208,56.408,480.232,55.704,478.856,55.704z M456.672,54.904
	c-0.992-0.496-1.664-1.328-1.664-2.624c0-1.696,1.264-3.152,3.84-3.152c2.576,0,3.84,1.472,3.84,3.152
	c0,1.248-0.72,2.16-1.664,2.624c1.184,0.448,1.968,1.488,1.968,2.88c0,2.128-1.728,3.504-4.144,3.504
	c-2.4,0-4.128-1.376-4.128-3.504C454.72,56.376,455.504,55.336,456.672,54.904z M458.848,54.328c1.216,0,2.096-0.768,2.096-1.824
	c0-1.2-0.816-1.856-2.096-1.856c-1.248,0-2.08,0.64-2.08,1.872C456.768,53.576,457.632,54.328,458.848,54.328z M458.848,55.704
	c-1.344,0-2.384,0.656-2.384,2.016c0,1.184,0.896,2.048,2.384,2.048c1.472,0,2.352-0.88,2.352-2.048
	C461.2,56.408,460.224,55.704,458.848,55.704z"/>
</svg>
