<?xml version="1.0" encoding="utf-8"?>
<!-- Generator: Adobe Illustrator 17.0.0, SVG Export Plug-In . SVG Version: 6.00 Build 0)  -->
<!DOCTYPE svg PUBLIC "-//W3C//DTD SVG 1.1//EN" "http://www.w3.org/Graphics/SVG/1.1/DTD/svg11.dtd">
<svg version="1.1" id="Layer_1" xmlns="http://www.w3.org/2000/svg" xmlns:xlink="http://www.w3.org/1999/xlink" x="0px" y="0px"
	 width="1450px" height="600px" viewBox="0 0 1450 600" enable-background="new 0 0 1450 600" xml:space="preserve">
<g>
	<polygon opacity="0.1" fill="#FFFFFF" points="1057.712,156.5 1098.59,242.587 1113.209,184.087 	"/>
	<polygon opacity="0.1" fill="#FFFFFF" points="606.951,546.057 657.262,533.936 620.667,586.153 	"/>
	<polygon opacity="0.1" fill="#FFFFFF" points="417.317,92.338 412.425,120.694 393.826,90.51 	"/>
	
		<circle opacity="0.1" fill="none" stroke="#FFFFFF" stroke-width="8" stroke-linecap="round" stroke-linejoin="round" stroke-miterlimit="10" cx="1151.528" cy="549.835" r="44.998"/>
	
		<circle opacity="0.1" fill="none" stroke="#FFFFFF" stroke-width="8" stroke-linecap="round" stroke-linejoin="round" stroke-miterlimit="10" cx="1332.461" cy="385.59" r="19.499"/>
	
		<circle opacity="0.1" fill="none" stroke="#FFFFFF" stroke-width="8" stroke-linecap="round" stroke-linejoin="round" stroke-miterlimit="10" cx="153.702" cy="311.332" r="19.499"/>
	
		<circle opacity="0.2" fill="none" stroke="#FFFFFF" stroke-width="8" stroke-linecap="round" stroke-linejoin="round" stroke-miterlimit="10" cx="1410.267" cy="26.001" r="19.499"/>
	<circle opacity="0.2" fill="#FFFFFF" cx="113" cy="552.835" r="3"/>
	<circle opacity="0.2" fill="#FFFFFF" cx="889.334" cy="101.103" r="3"/>
	<circle opacity="0.2" fill="#FFFFFF" cx="1074.497" cy="501.661" r="3"/>
	<circle opacity="0.2" fill="#FFFFFF" cx="1320" cy="221.098" r="3"/>
	<circle opacity="0.4" fill="#FFFFFF" cx="546" cy="196.543" r="3"/>
	<circle opacity="0.2" fill="#FFFFFF" cx="250.112" cy="199.543" r="3"/>
	<circle opacity="0.5" fill="#FFFFFF" cx="1293.062" cy="464" r="1.5"/>
	<circle opacity="0.5" fill="#FFFFFF" cx="1196.526" cy="219.598" r="1.5"/>
	<circle opacity="0.5" fill="#FFFFFF" cx="317.609" cy="479.084" r="1.5"/>
	<circle opacity="0.5" fill="#FFFFFF" cx="17.624" cy="423.587" r="1.5"/>
	<circle opacity="0.5" fill="#FFFFFF" cx="1242" cy="89.5" r="1.5"/>
	<circle opacity="0.5" fill="#FFFFFF" cx="1159.5" cy="397" r="1.5"/>
</g>
</svg>
